<svg width="236" height="180" viewBox="0 0 236 180" fill="none" xmlns="http://www.w3.org/2000/svg">
<path d="M236 159.001H0V159.122H236V159.001Z" fill="#E0E0E0"/>
<path d="M179.044 163.479H162.807V163.6H179.044V163.479Z" fill="#E0E0E0"/>
<path d="M198.145 163.134H189.008V163.255H198.145V163.134Z" fill="#E0E0E0"/>
<path d="M116.744 163.42H104.623V163.541H116.744V163.42Z" fill="#E0E0E0"/>
<path d="M125.5 165.145H117.221V165.266H125.5V165.145Z" fill="#E0E0E0"/>
<path d="M68.2843 162.191H43.273V162.313H68.2843V162.191Z" fill="#E0E0E0"/>
<path d="M111.864 137.341H20.7252C20.0112 137.34 19.3269 137.047 18.8225 136.527C18.3181 136.007 18.0348 135.302 18.0348 134.568V2.74876C18.041 2.01836 18.327 1.31998 18.8308 0.805308C19.3345 0.290639 20.0153 0.00125121 20.7252 0H111.864C112.578 0 113.264 0.292159 113.769 0.812205C114.275 1.33225 114.559 2.03758 114.559 2.77304V134.568C114.559 135.303 114.275 136.009 113.769 136.529C113.264 137.049 112.578 137.341 111.864 137.341ZM20.7252 0.0971297C20.0425 0.0984161 19.3882 0.37835 18.9059 0.875488C18.4237 1.37263 18.1528 2.04634 18.1528 2.74876V134.568C18.1528 135.27 18.4237 135.944 18.9059 136.441C19.3882 136.938 20.0425 137.218 20.7252 137.219H111.864C112.547 137.218 113.202 136.938 113.685 136.441C114.168 135.944 114.44 135.271 114.441 134.568V2.74876C114.44 2.0459 114.168 1.37219 113.685 0.875192C113.202 0.378192 112.547 0.0984134 111.864 0.0971297H20.7252Z" fill="#E0E0E0"/>
<path d="M213.962 137.341H122.819C122.104 137.34 121.42 137.047 120.914 136.527C120.409 136.007 120.125 135.303 120.124 134.568V2.74876C120.131 2.01792 120.418 1.31954 120.923 0.805004C121.427 0.290469 122.108 0.00123757 122.819 0H213.962C214.671 0.00252755 215.351 0.29248 215.853 0.807012C216.356 1.32154 216.642 2.0192 216.648 2.74876V134.568C216.648 135.302 216.365 136.005 215.862 136.525C215.358 137.045 214.675 137.338 213.962 137.341ZM122.819 0.0971297C122.136 0.0984134 121.481 0.378192 120.998 0.875192C120.515 1.37219 120.243 2.0459 120.242 2.74876V134.568C120.243 135.271 120.515 135.944 120.998 136.441C121.481 136.938 122.136 137.218 122.819 137.219H213.962C214.645 137.218 215.3 136.938 215.783 136.441C216.266 135.944 216.538 135.271 216.539 134.568V2.74876C216.538 2.0459 216.266 1.37219 215.783 0.875192C215.3 0.378192 214.645 0.0984134 213.962 0.0971297H122.819Z" fill="#E0E0E0"/>
<path d="M42.3334 68.9326C42.3334 68.9326 42.6591 74.5758 55.1057 74.5758C67.5523 74.5758 67.8827 68.9326 67.8827 68.9326H42.3334Z" fill="#E6E6E6"/>
<path d="M173.554 102.958H166.984C166.165 102.958 165.502 103.64 165.502 104.482V115.662C165.502 116.504 166.165 117.187 166.984 117.187H173.554C174.373 117.187 175.036 116.504 175.036 115.662V104.482C175.036 103.64 174.373 102.958 173.554 102.958Z" fill="#F0F0F0"/>
<path d="M191.641 106.682H185.897C185.712 106.682 185.562 106.836 185.562 107.026V107.415C185.562 107.605 185.712 107.76 185.897 107.76H191.641C191.826 107.76 191.976 107.605 191.976 107.415V107.026C191.976 106.836 191.826 106.682 191.641 106.682Z" fill="#F0F0F0"/>
<path d="M150.294 109.271C150.294 109.271 150.53 117.187 159.54 117.187C168.551 117.187 168.792 109.271 168.792 109.271H150.294Z" fill="#E6E6E6"/>
<path d="M127.884 98.8149H141.52V96.0468H127.884V98.8149Z" fill="#E0E0E0"/>
<path d="M209.313 96.0513H141.52V98.8195H209.313V96.0513Z" fill="#F0F0F0"/>
<path d="M209.313 117.187H141.52V119.955H209.313V117.187Z" fill="#F0F0F0"/>
<path d="M144.036 98.8149H141.52V158.996H144.036V98.8149Z" fill="#F0F0F0"/>
<path d="M42.3336 155.354H97.9777L97.9777 78.092H42.3336L42.3336 155.354Z" fill="#F0F0F0"/>
<path d="M47.4027 126.162H92.9082V107.289H47.4027V126.162Z" fill="#E6E6E6"/>
<path d="M47.4027 148.472H92.9082V129.599H47.4027V148.472Z" fill="#E6E6E6"/>
<path d="M75.2651 109.358H65.0463C64.7137 109.356 64.3951 109.22 64.1599 108.978C63.9247 108.736 63.792 108.408 63.7908 108.066C63.7908 107.723 63.9229 107.394 64.1582 107.151C64.3935 106.908 64.7129 106.77 65.0463 106.769H75.2651C75.5985 106.77 75.9178 106.908 76.1532 107.151C76.3885 107.394 76.5206 107.723 76.5206 108.066C76.5194 108.408 76.3867 108.736 76.1515 108.978C75.9163 109.22 75.5977 109.356 75.2651 109.358Z" fill="#F0F0F0"/>
<path d="M47.4027 103.846H92.9082V84.9735H47.4027V103.846Z" fill="#E6E6E6"/>
<path d="M75.2651 87.0475H65.0463C64.7129 87.0462 64.3935 86.909 64.1582 86.666C63.9229 86.4229 63.7908 86.0939 63.7908 85.7508C63.792 85.4086 63.9247 85.0807 64.1599 84.8388C64.3951 84.5968 64.7137 84.4603 65.0463 84.459H75.2651C75.5977 84.4603 75.9163 84.5968 76.1515 84.8388C76.3867 85.0807 76.5194 85.4086 76.5206 85.7508C76.5206 86.0939 76.3885 86.4229 76.1532 86.666C75.9178 86.909 75.5985 87.0462 75.2651 87.0475Z" fill="#F0F0F0"/>
<path d="M75.2651 131.669H65.0463C64.7137 131.667 64.3951 131.531 64.1599 131.289C63.9247 131.047 63.792 130.719 63.7908 130.377C63.7908 130.034 63.9229 129.705 64.1582 129.462C64.3935 129.219 64.7129 129.081 65.0463 129.08H75.2651C75.5985 129.081 75.9178 129.219 76.1532 129.462C76.3885 129.705 76.5206 130.034 76.5206 130.377C76.5194 130.719 76.3867 131.047 76.1515 131.289C75.9163 131.531 75.5977 131.667 75.2651 131.669Z" fill="#F0F0F0"/>
<path d="M99.6955 74.5762H42.3334V78.0971H99.6955V74.5762Z" fill="#E6E6E6"/>
<path d="M127.86 180C178.403 180 219.376 177.539 219.376 174.502C219.376 171.466 178.403 169.005 127.86 169.005C77.317 169.005 36.3438 171.466 36.3438 174.502C36.3438 177.539 77.317 180 127.86 180Z" fill="#F5F5F5"/>
<path d="M198.145 44.1069H151.842C149.399 44.1069 147.419 46.1443 147.419 48.6574V61.6145C147.419 64.1277 149.399 66.165 151.842 66.165H198.145C200.588 66.165 202.568 64.1277 202.568 61.6145V48.6574C202.568 46.1443 200.588 44.1069 198.145 44.1069Z" fill="#6AB058"/>
<path d="M188.96 47.8267H152.791C152.363 47.8267 152.017 48.1832 152.017 48.6231V49.4973C152.017 49.9372 152.363 50.2937 152.791 50.2937H188.96C189.388 50.2937 189.734 49.9372 189.734 49.4973V48.6231C189.734 48.1832 189.388 47.8267 188.96 47.8267Z" fill="#6AB058"/>
<path d="M177.505 53.7705H152.791C152.363 53.7705 152.017 54.1271 152.017 54.567V55.4411C152.017 55.881 152.363 56.2376 152.791 56.2376H177.505C177.932 56.2376 178.279 55.881 178.279 55.4411V54.567C178.279 54.1271 177.932 53.7705 177.505 53.7705Z" fill="#6AB058"/>
<path d="M170.878 59.7153H152.791C152.363 59.7153 152.017 60.0719 152.017 60.5118V61.3859C152.017 61.8258 152.363 62.1824 152.791 62.1824H170.878C171.305 62.1824 171.652 61.8258 171.652 61.3859V60.5118C171.652 60.0719 171.305 59.7153 170.878 59.7153Z" fill="#6AB058"/>
<path d="M193.293 59.7153H175.206C174.779 59.7153 174.432 60.0719 174.432 60.5118V61.3859C174.432 61.8258 174.779 62.1824 175.206 62.1824H193.293C193.721 62.1824 194.067 61.8258 194.067 61.3859V60.5118C194.067 60.0719 193.721 59.7153 193.293 59.7153Z" fill="#6AB058"/>
<g opacity="0.5">
<path d="M188.96 47.8271H152.791C152.363 47.8271 152.017 48.1837 152.017 48.6236V49.4978C152.017 49.9376 152.363 50.2942 152.791 50.2942H188.96C189.387 50.2942 189.734 49.9376 189.734 49.4978V48.6236C189.734 48.1837 189.387 47.8271 188.96 47.8271Z" fill="white"/>
<path d="M177.505 53.771H152.791C152.363 53.771 152.017 54.1276 152.017 54.5675V55.4416C152.017 55.8815 152.363 56.2381 152.791 56.2381H177.505C177.932 56.2381 178.279 55.8815 178.279 55.4416V54.5675C178.279 54.1276 177.932 53.771 177.505 53.771Z" fill="white"/>
<path d="M170.878 59.7158H152.791C152.363 59.7158 152.017 60.0724 152.017 60.5123V61.3864C152.017 61.8263 152.363 62.1829 152.791 62.1829H170.878C171.305 62.1829 171.652 61.8263 171.652 61.3864V60.5123C171.652 60.0724 171.305 59.7158 170.878 59.7158Z" fill="white"/>
<path d="M193.293 59.7158H175.206C174.778 59.7158 174.432 60.0724 174.432 60.5123V61.3864C174.432 61.8263 174.778 62.1829 175.206 62.1829H193.293C193.72 62.1829 194.067 61.8263 194.067 61.3864V60.5123C194.067 60.0724 193.72 59.7158 193.293 59.7158Z" fill="white"/>
</g>
<path d="M161.056 38.9639H108.498C104.917 38.9639 102.013 41.9514 102.013 45.6367V64.6351C102.013 68.3204 104.917 71.3079 108.498 71.3079H161.056C164.637 71.3079 167.541 68.3204 167.541 64.6351V45.6367C167.541 41.9514 164.637 38.9639 161.056 38.9639Z" fill="#6AB058"/>
<path d="M162.915 44.417H109.891C109.263 44.417 108.753 44.941 108.753 45.5874V46.8646C108.753 47.511 109.263 48.0351 109.891 48.0351H162.915C163.544 48.0351 164.053 47.511 164.053 46.8646V45.5874C164.053 44.941 163.544 44.417 162.915 44.417Z" fill="#6AB058"/>
<path d="M146.117 53.1348H109.891C109.263 53.1348 108.753 53.6588 108.753 54.3052V55.5824C108.753 56.2288 109.263 56.7528 109.891 56.7528H146.117C146.745 56.7528 147.254 56.2288 147.254 55.5824V54.3052C147.254 53.6588 146.745 53.1348 146.117 53.1348Z" fill="#6AB058"/>
<path d="M136.403 61.8521H109.891C109.263 61.8521 108.753 62.3761 108.753 63.0225V64.2997C108.753 64.9461 109.263 65.4701 109.891 65.4701H136.403C137.031 65.4701 137.541 64.9461 137.541 64.2997V63.0225C137.541 62.3761 137.031 61.8521 136.403 61.8521Z" fill="#6AB058"/>
<path d="M164.846 61.8521H142.756C142.128 61.8521 141.619 62.3761 141.619 63.0225V64.2997C141.619 64.9461 142.128 65.4701 142.756 65.4701H164.846C165.474 65.4701 165.983 64.9461 165.983 64.2997V63.0225C165.983 62.3761 165.474 61.8521 164.846 61.8521Z" fill="#6AB058"/>
<g opacity="0.5">
<path d="M162.915 44.4175H109.891C109.263 44.4175 108.753 44.9415 108.753 45.5879V46.8651C108.753 47.5115 109.263 48.0355 109.891 48.0355H162.915C163.544 48.0355 164.053 47.5115 164.053 46.8651V45.5879C164.053 44.9415 163.544 44.4175 162.915 44.4175Z" fill="white"/>
<path d="M146.117 53.1348H109.891C109.263 53.1348 108.753 53.6588 108.753 54.3052V55.5824C108.753 56.2288 109.263 56.7528 109.891 56.7528H146.117C146.745 56.7528 147.254 56.2288 147.254 55.5824V54.3052C147.254 53.6588 146.745 53.1348 146.117 53.1348Z" fill="white"/>
<path d="M136.403 61.8525H109.891C109.263 61.8525 108.753 62.3766 108.753 63.0229V64.3002C108.753 64.9466 109.263 65.4706 109.891 65.4706H136.403C137.031 65.4706 137.541 64.9466 137.541 64.3002V63.0229C137.541 62.3766 137.031 61.8525 136.403 61.8525Z" fill="white"/>
<path d="M164.846 61.8525H142.756C142.128 61.8525 141.619 62.3766 141.619 63.0229V64.3002C141.619 64.9466 142.128 65.4706 142.756 65.4706H164.846C165.474 65.4706 165.983 64.9466 165.983 64.3002V63.0229C165.983 62.3766 165.474 61.8525 164.846 61.8525Z" fill="white"/>
</g>
<path d="M128.379 77.1694H103.066C101.392 77.1694 100.035 78.5653 100.035 80.2873V119.304C100.035 121.026 101.392 122.422 103.066 122.422H128.379C130.053 122.422 131.409 121.026 131.409 119.304V80.2873C131.409 78.5653 130.053 77.1694 128.379 77.1694Z" fill="#6AB058"/>
<path d="M127.218 81.8901H104.222C103.914 81.8901 103.665 82.1467 103.665 82.4632V83.3228C103.665 83.6393 103.914 83.8959 104.222 83.8959H127.218C127.525 83.8959 127.775 83.6393 127.775 83.3228V82.4632C127.775 82.1467 127.525 81.8901 127.218 81.8901Z" fill="#FAFAFA"/>
<path d="M119.897 86.7173H104.222C103.914 86.7173 103.665 86.9739 103.665 87.2904V88.1499C103.665 88.4664 103.914 88.723 104.222 88.723H119.897C120.205 88.723 120.454 88.4664 120.454 88.1499V87.2904C120.454 86.9739 120.205 86.7173 119.897 86.7173Z" fill="#FAFAFA"/>
<path d="M127.218 91.5493H104.222C103.914 91.5493 103.665 91.8059 103.665 92.1224V92.982C103.665 93.2985 103.914 93.555 104.222 93.555H127.218C127.525 93.555 127.775 93.2985 127.775 92.982V92.1224C127.775 91.8059 127.525 91.5493 127.218 91.5493Z" fill="#FAFAFA"/>
<path d="M112.77 96.3765H104.222C103.914 96.3765 103.665 96.633 103.665 96.9495V97.8091C103.665 98.1256 103.914 98.3822 104.222 98.3822H112.77C113.078 98.3822 113.327 98.1256 113.327 97.8091V96.9495C113.327 96.633 113.078 96.3765 112.77 96.3765Z" fill="#FAFAFA"/>
<path d="M124.73 96.3765H116.182C115.875 96.3765 115.625 96.633 115.625 96.9495V97.8091C115.625 98.1256 115.875 98.3822 116.182 98.3822H124.73C125.038 98.3822 125.287 98.1256 125.287 97.8091V96.9495C125.287 96.633 125.038 96.3765 124.73 96.3765Z" fill="#FAFAFA"/>
<path d="M127.218 101.208H104.222C103.914 101.208 103.665 101.465 103.665 101.782V102.641C103.665 102.958 103.914 103.214 104.222 103.214H127.218C127.525 103.214 127.775 102.958 127.775 102.641V101.782C127.775 101.465 127.525 101.208 127.218 101.208Z" fill="#FAFAFA"/>
<path d="M127.218 106.036H104.222C103.914 106.036 103.665 106.292 103.665 106.609V107.468C103.665 107.785 103.914 108.041 104.222 108.041H127.218C127.525 108.041 127.775 107.785 127.775 107.468V106.609C127.775 106.292 127.525 106.036 127.218 106.036Z" fill="#FAFAFA"/>
<path d="M123.14 110.868H104.222C103.914 110.868 103.665 111.125 103.665 111.441V112.301C103.665 112.617 103.914 112.874 104.222 112.874H123.14C123.447 112.874 123.697 112.617 123.697 112.301V111.441C123.697 111.125 123.447 110.868 123.14 110.868Z" fill="#FAFAFA"/>
<path d="M113.048 115.696H104.222C103.914 115.696 103.665 115.952 103.665 116.269V117.128C103.665 117.445 103.914 117.702 104.222 117.702H113.048C113.356 117.702 113.605 117.445 113.605 117.128V116.269C113.605 115.952 113.356 115.696 113.048 115.696Z" fill="#FAFAFA"/>
<path d="M135.228 76.8921H100.116L115.64 89.6015L139.443 98.8287V81.2192C139.44 80.0707 138.995 78.9701 138.205 78.1589C137.415 77.3477 136.344 76.8921 135.228 76.8921Z" fill="#6AB058"/>
<path opacity="0.4" d="M135.228 76.8921H100.116L115.64 89.6015L139.443 98.8287V81.2192C139.44 80.0707 138.995 78.9701 138.205 78.1589C137.415 77.3477 136.344 76.8921 135.228 76.8921Z" fill="black"/>
<path d="M133.694 83.439H108.003C107.617 83.439 107.304 83.7608 107.304 84.1577V85.4981C107.304 85.8951 107.617 86.2169 108.003 86.2169H133.694C134.08 86.2169 134.392 85.8951 134.392 85.4981V84.1577C134.392 83.7608 134.08 83.439 133.694 83.439Z" fill="#FAFAFA"/>
<path d="M179.695 102.102V90.1165C179.695 89.4513 179.171 88.9121 178.524 88.9121H167.786C167.14 88.9121 166.616 89.4513 166.616 90.1165V102.102C166.616 102.767 167.14 103.307 167.786 103.307H178.524C179.171 103.307 179.695 102.767 179.695 102.102Z" fill="#6AB058"/>
<path d="M151.351 31.975V27.2788L118.193 27.2788V31.975H151.351Z" fill="#6AB058"/>
<path opacity="0.5" d="M151.351 31.975V27.2788L118.193 27.2788V31.975H151.351Z" fill="white"/>
<path d="M61.5297 67.631C61.1144 68.6023 60.6565 69.6513 60.2553 70.676C59.8541 71.7007 59.4388 72.7546 59.0753 73.8036C58.3296 75.8486 57.7317 77.9474 57.2864 80.083L57.1496 80.86L57.1024 81.1514C57.1024 81.234 57.1024 81.3408 57.074 81.438C57.0561 81.9108 57.0656 82.3843 57.1024 82.856C57.192 83.8808 57.3525 84.9783 57.5744 86.0759C57.9708 88.2759 58.4759 90.5438 58.9904 92.7778L56.569 93.7491C55.4403 91.632 54.479 89.4249 53.6945 87.1492C53.2812 85.9647 52.9469 84.7526 52.6939 83.5214C52.5521 82.8401 52.4637 82.1483 52.4296 81.4525C52.4296 81.2583 52.4296 81.0737 52.4296 80.8649C52.4296 80.6561 52.4296 80.423 52.4626 80.287L52.557 79.3157C52.698 78.0648 52.914 76.824 53.2036 75.6005C53.468 74.3864 53.8078 73.2062 54.1476 72.0407C54.4875 70.8751 54.9123 69.729 55.3607 68.6023C55.5825 68.039 55.8327 67.4805 56.0498 66.922C56.2669 66.3635 56.5218 65.8293 56.8239 65.2319L61.5297 67.631Z" fill="#FFBE9D"/>
<path d="M58.863 92.1221L60.7038 93.9724L56.6871 95.915C56.6871 95.915 55.7148 94.1618 56.3898 92.5786L58.863 92.1221Z" fill="#E4897B"/>
<path d="M62.1905 96.7263L58.7968 98.1541L56.6917 95.8958L60.7037 93.9727L62.1905 96.7263Z" fill="#E4897B"/>
<path opacity="0.4" d="M130.938 94.7353C124.259 93.9638 117.953 91.1723 112.816 86.7137C107.68 82.2551 103.943 76.3296 102.079 69.6864C100.215 63.0431 100.307 55.9803 102.343 49.3908C104.38 42.8013 108.27 36.981 113.521 32.6657C118.772 28.3504 125.148 25.7338 131.844 25.1468C138.54 24.5597 145.255 26.0285 151.14 29.3675C157.025 32.7065 161.815 37.7658 164.906 43.9058C167.997 50.0457 169.249 56.9907 168.504 63.8627C168.009 68.4285 166.645 72.8491 164.489 76.8721C162.333 80.895 159.427 84.4413 155.938 87.3084C152.45 90.1755 148.446 92.3071 144.156 93.5815C139.866 94.8558 135.375 95.2479 130.938 94.7353Z" fill="#FAFAFA"/>
<path opacity="0.4" d="M155.661 32.4363L103.977 74.9255C103.76 74.4399 103.547 73.9543 103.349 73.4686C102.053 70.2975 101.225 66.9453 100.89 63.5226L145.532 26.8223C149.197 28.0802 152.624 29.9794 155.661 32.4363Z" fill="#FAFAFA"/>
<path opacity="0.4" d="M167.588 51.0509L118.996 90.9954C114.38 88.5193 110.379 84.9832 107.305 80.6608L160.362 37.04C163.782 41.0791 166.255 45.8727 167.588 51.0509Z" fill="#FAFAFA"/>
<path d="M96.4723 46.6215L96.0239 46.4661C96.8005 44.1083 97.7765 41.8251 98.9408 39.6428L99.3515 39.8759C98.2025 42.0338 97.2391 44.2909 96.4723 46.6215ZM102.202 35.2865L101.82 35C105.699 29.6034 110.776 25.2392 116.627 22.2712L116.839 22.7083C111.054 25.6456 106.036 29.9632 102.202 35.3011V35.2865ZM153.929 23.3736C152.386 22.5224 150.791 21.7777 149.152 21.1445L149.322 20.688C150.977 21.3361 152.588 22.0953 154.146 22.9608L153.929 23.3736Z" fill="#6AB058"/>
<path opacity="0.3" d="M96.4723 46.6215L96.0239 46.4661C96.8005 44.1083 97.7765 41.8251 98.9408 39.6428L99.3515 39.8759C98.2025 42.0338 97.2391 44.2909 96.4723 46.6215ZM102.202 35.2865L101.82 35C105.699 29.6034 110.776 25.2392 116.627 22.2712L116.839 22.7083C111.054 25.6456 106.036 29.9632 102.202 35.3011V35.2865ZM153.929 23.3736C152.386 22.5224 150.791 21.7777 149.152 21.1445L149.322 20.688C150.977 21.3361 152.588 22.0953 154.146 22.9608L153.929 23.3736Z" fill="black"/>
<path d="M169.859 42.125C165.488 32.7983 157.797 25.5597 148.38 21.91C138.962 18.2602 128.541 18.4791 119.276 22.5213C110.012 26.5635 102.614 34.119 98.6171 43.6215C94.6201 53.1239 94.3304 63.8445 97.8079 73.5609C94.6549 74.6973 91.5397 75.9162 88.4434 77.1741C83.9783 78.9969 79.5541 80.9006 75.1708 82.8853C70.7906 84.8813 66.4293 86.9161 62.1105 89.0433C59.9441 90.0874 57.8059 91.1898 55.6489 92.2582C54.5267 92.7544 53.5101 93.4721 52.6564 94.3708C52.1944 94.8685 51.7876 95.4174 51.4433 96.0074C51.0233 96.7053 50.7052 97.4629 50.4993 98.256C50.1442 99.6851 50.2978 101.198 50.9323 102.521C51.5669 103.843 52.6405 104.889 53.9591 105.468C54.6913 105.784 55.4639 105.99 56.253 106.08C56.9196 106.157 57.5925 106.157 58.259 106.08C59.4703 105.928 60.6409 105.534 61.7046 104.919C63.8428 103.807 65.9951 102.734 68.1191 101.592C72.3671 99.3633 76.6151 97.037 80.8112 94.6768C85.0073 92.3165 89.2081 89.8446 93.305 87.3095C96.137 85.5466 98.9973 83.7449 101.801 81.8606C107.185 90.6054 115.632 96.8839 125.392 99.3951C135.153 101.906 145.478 100.458 154.228 95.3494C162.979 90.2411 169.484 81.8648 172.395 71.9561C175.307 62.0473 174.402 51.3659 169.868 42.125H169.859ZM148.402 88.5188C142.916 91.3046 136.751 92.3543 130.686 91.5352C124.621 90.7162 118.928 88.0651 114.328 83.9172C109.727 79.7693 106.425 74.3109 104.839 68.2322C103.253 62.1534 103.454 55.7273 105.418 49.7664C107.381 43.8055 111.019 38.5775 115.87 34.7434C120.721 30.9093 126.568 28.6414 132.672 28.2263C138.776 27.8113 144.862 29.2678 150.161 32.4116C155.46 35.5555 159.735 40.2455 162.444 45.8887C164.243 49.6364 165.306 53.7121 165.574 57.8828C165.842 62.0536 165.309 66.2378 164.005 70.1965C162.701 74.1552 160.652 77.8108 157.975 80.9546C155.297 84.0984 152.044 86.6687 148.402 88.5188Z" fill="#6AB058"/>
<path opacity="0.3" d="M169.859 42.125C165.488 32.7983 157.797 25.5597 148.38 21.91C138.962 18.2602 128.541 18.4791 119.276 22.5213C110.012 26.5635 102.614 34.119 98.6171 43.6215C94.6201 53.1239 94.3304 63.8445 97.8079 73.5609C94.6549 74.6973 91.5397 75.9162 88.4434 77.1741C83.9783 78.9969 79.5541 80.9006 75.1708 82.8853C70.7906 84.8813 66.4293 86.9161 62.1105 89.0433C59.9441 90.0874 57.8059 91.1898 55.6489 92.2582C54.5267 92.7544 53.5101 93.4721 52.6564 94.3708C52.1944 94.8685 51.7876 95.4174 51.4433 96.0074C51.0233 96.7053 50.7052 97.4629 50.4993 98.256C50.1442 99.6851 50.2978 101.198 50.9323 102.521C51.5669 103.843 52.6405 104.889 53.9591 105.468C54.6913 105.784 55.4639 105.99 56.253 106.08C56.9196 106.157 57.5925 106.157 58.259 106.08C59.4703 105.928 60.6409 105.534 61.7046 104.919C63.8428 103.807 65.9951 102.734 68.1191 101.592C72.3671 99.3633 76.6151 97.037 80.8112 94.6768C85.0073 92.3165 89.2081 89.8446 93.305 87.3095C96.137 85.5466 98.9973 83.7449 101.801 81.8606C107.185 90.6054 115.632 96.8839 125.392 99.3951C135.153 101.906 145.478 100.458 154.228 95.3494C162.979 90.2411 169.484 81.8648 172.395 71.9561C175.307 62.0473 174.402 51.3659 169.868 42.125H169.859ZM148.402 88.5188C142.916 91.3046 136.751 92.3543 130.686 91.5352C124.621 90.7162 118.928 88.0651 114.328 83.9172C109.727 79.7693 106.425 74.3109 104.839 68.2322C103.253 62.1534 103.454 55.7273 105.418 49.7664C107.381 43.8055 111.019 38.5775 115.87 34.7434C120.721 30.9093 126.568 28.6414 132.672 28.2263C138.776 27.8113 144.862 29.2678 150.161 32.4116C155.46 35.5555 159.735 40.2455 162.444 45.8887C164.243 49.6364 165.306 53.7121 165.574 57.8828C165.842 62.0536 165.309 66.2378 164.005 70.1965C162.701 74.1552 160.652 77.8108 157.975 80.9546C155.297 84.0984 152.044 86.6687 148.402 88.5188Z" fill="black"/>
<path d="M74.576 50.2887C74.576 50.5752 74.7224 50.8083 74.9064 50.8083C75.0905 50.8083 75.2368 50.5752 75.2368 50.2887C75.2368 50.0022 75.0905 49.769 74.9064 49.769C74.7224 49.769 74.576 50.0216 74.576 50.2887Z" fill="#252525"/>
<path d="M74.708 50.8081C75.0421 51.6877 75.4915 52.5161 76.0438 53.2703C75.8528 53.4109 75.6343 53.5067 75.4036 53.5512C75.1728 53.5957 74.9354 53.5877 74.708 53.5277V50.8081Z" fill="#E68250"/>
<path d="M73.5988 48.6909C73.5725 48.6909 73.5465 48.6848 73.5228 48.673C73.4991 48.6612 73.4783 48.6441 73.4619 48.6229C73.4373 48.5858 73.4275 48.5404 73.4345 48.4961C73.4416 48.4518 73.4649 48.412 73.4997 48.3849C73.7075 48.2227 73.9504 48.1146 74.2077 48.0698C74.4649 48.0249 74.7288 48.0448 74.977 48.1275C74.9993 48.1338 75.0201 48.1447 75.038 48.1598C75.0559 48.1748 75.0705 48.1935 75.081 48.2147C75.0914 48.2359 75.0974 48.2591 75.0986 48.2829C75.0998 48.3066 75.0961 48.3303 75.0878 48.3525C75.0795 48.3747 75.0668 48.3949 75.0504 48.4117C75.0341 48.4285 75.0145 48.4416 74.993 48.4501C74.9714 48.4587 74.9483 48.4625 74.9253 48.4613C74.9022 48.4601 74.8796 48.4539 74.859 48.4432C74.6619 48.381 74.4531 48.3683 74.2502 48.4064C74.0474 48.4444 73.8563 48.532 73.6932 48.6617C73.6652 48.6808 73.6324 48.691 73.5988 48.6909Z" fill="#252525"/>
<path d="M65.0413 52.4497C65.5133 55.0576 66.0325 59.8412 64.2578 61.5847C64.2578 61.5847 64.9517 64.2315 69.6669 64.2315C74.8589 64.2315 72.1402 61.5847 72.1402 61.5847C69.3082 60.8854 69.3885 58.7291 69.8793 56.6991L65.0413 52.4497Z" fill="#FFBE9D"/>
<path d="M62.1387 62.9588C62.7004 62.0604 61.7564 59.8798 61.7564 59.8798C61.7564 59.8798 70.1014 57.7187 73.5139 61.0357C74.2219 61.7204 73.4384 62.7306 73.4384 62.7306L62.1387 62.9588Z" fill="#6AB058"/>
<path opacity="0.1" d="M62.1387 62.9588C62.7004 62.0604 61.7564 59.8798 61.7564 59.8798C61.7564 59.8798 70.1014 57.7187 73.5139 61.0357C74.2219 61.7204 73.4384 62.7306 73.4384 62.7306L62.1387 62.9588Z" fill="black"/>
<path d="M48.3327 162.045C47.8937 162.045 47.1904 161.293 46.9828 161.011C46.9738 160.997 46.9691 160.981 46.9691 160.965C46.9691 160.948 46.9738 160.932 46.9828 160.919C46.9904 160.905 47.0014 160.894 47.0147 160.886C47.028 160.879 47.043 160.875 47.0583 160.875C47.1102 160.875 48.2666 160.982 48.5828 161.404C48.6172 161.449 48.6418 161.501 48.6548 161.556C48.6679 161.611 48.6691 161.669 48.6584 161.725C48.6542 161.797 48.6284 161.866 48.5845 161.923C48.5405 161.979 48.4806 162.021 48.4129 162.041L48.3327 162.045ZM47.2376 161.074C47.5822 161.482 48.1344 161.943 48.3704 161.885C48.3704 161.885 48.4648 161.861 48.4932 161.705C48.4994 161.673 48.4983 161.64 48.4902 161.608C48.482 161.576 48.4669 161.546 48.446 161.521C48.0963 161.248 47.6756 161.089 47.2376 161.064V161.074Z" fill="#6AB058"/>
<path d="M47.2897 161.065C47.205 161.074 47.1196 161.074 47.0349 161.065C47.0199 161.064 47.0057 161.058 46.9939 161.049C46.9822 161.039 46.9734 161.026 46.9688 161.012C46.9621 160.998 46.9587 160.983 46.9587 160.968C46.9587 160.953 46.9621 160.938 46.9688 160.924C47.0018 160.895 47.6957 160.152 48.2196 160.152C48.2823 160.151 48.3446 160.163 48.4023 160.188C48.4601 160.213 48.512 160.25 48.5547 160.298C48.6017 160.338 48.6338 160.394 48.6459 160.456C48.6579 160.517 48.649 160.582 48.6208 160.638C48.4839 160.91 47.7617 161.065 47.2897 161.065ZM47.2284 160.895C47.7004 160.895 48.3848 160.744 48.4981 160.531C48.4981 160.531 48.5311 160.468 48.4556 160.39C48.4281 160.359 48.3944 160.335 48.3569 160.319C48.3194 160.303 48.279 160.296 48.2385 160.298C47.8515 160.389 47.4999 160.597 47.2284 160.895Z" fill="#6AB058"/>
<path d="M79.4801 173.07C79.1224 173.067 78.7655 173.033 78.4134 172.968C78.3959 172.965 78.3802 172.955 78.3689 172.941C78.3577 172.926 78.3517 172.909 78.352 172.89C78.3494 172.874 78.3516 172.856 78.3583 172.841C78.365 172.825 78.3759 172.812 78.3898 172.803C78.4417 172.774 79.65 172.06 80.2306 172.225C80.2844 172.237 80.3352 172.261 80.3799 172.295C80.4245 172.328 80.462 172.37 80.4902 172.419C80.5272 172.473 80.547 172.538 80.547 172.604C80.547 172.67 80.5272 172.734 80.4902 172.788C80.3533 173.007 79.9238 173.07 79.4801 173.07ZM78.6824 172.842C79.3244 172.939 80.2023 172.934 80.3628 172.701C80.3864 172.672 80.4052 172.618 80.3628 172.516C80.3267 172.456 80.2691 172.412 80.2023 172.395C79.8341 172.298 79.1025 172.618 78.6824 172.842Z" fill="#6AB058"/>
<path d="M78.4323 172.973C78.4169 172.977 78.4005 172.977 78.3851 172.973C78.372 172.964 78.3618 172.951 78.3559 172.937C78.35 172.922 78.3487 172.906 78.3521 172.89C78.384 172.384 78.5726 171.903 78.8901 171.516C78.9544 171.459 79.0298 171.416 79.1112 171.392C79.1927 171.368 79.2783 171.362 79.3621 171.375C79.5887 171.375 79.6548 171.516 79.6689 171.608C79.7303 172.011 78.9043 172.783 78.4842 172.977L78.4323 172.973ZM79.2772 171.516C79.1733 171.515 79.0727 171.553 78.994 171.622C78.7271 171.929 78.5618 172.315 78.522 172.725C78.9468 172.458 79.5132 171.856 79.466 171.613C79.466 171.613 79.466 171.53 79.3055 171.516H79.2772Z" fill="#6AB058"/>
<path d="M74.6185 172.885H78.0877L78.4323 164.625H74.9631L74.6185 172.885Z" fill="#FFBE9D"/>
<path d="M43.7261 158.705L46.6242 160.657L53.0245 155.096L50.1217 153.139L43.7261 158.705Z" fill="#FFBE9D"/>
<path d="M47.1008 160.472L44.0894 157.932C44.0362 157.887 43.9695 157.863 43.9006 157.863C43.8318 157.863 43.765 157.887 43.7118 157.932L41.2291 159.938C41.1691 159.987 41.1207 160.05 41.0874 160.121C41.0541 160.192 41.0368 160.27 41.0368 160.348C41.0368 160.427 41.0541 160.505 41.0874 160.576C41.1207 160.647 41.1691 160.71 41.2291 160.759C42.2958 161.628 42.8575 161.997 44.1838 163.114C45.0004 163.799 47.0158 165.897 48.1533 166.844C49.2909 167.791 50.334 166.771 49.9564 166.281C48.2619 164.071 47.5964 162.182 47.4029 161.011C47.3694 160.8 47.262 160.608 47.1008 160.472Z" fill="#252525"/>
<path d="M78.064 172.473H74.288C74.2191 172.473 74.1523 172.497 74.0984 172.541C74.0445 172.585 74.0065 172.647 73.9906 172.715L73.3062 175.887C73.289 175.964 73.289 176.043 73.3063 176.12C73.3235 176.197 73.3576 176.269 73.4058 176.33C73.454 176.392 73.5151 176.441 73.5846 176.474C73.654 176.508 73.7299 176.524 73.8065 176.523C75.1706 176.499 77.1436 176.416 78.8617 176.416C80.8677 176.416 82.6046 176.528 84.9552 176.528C86.3712 176.528 86.7771 175.047 86.1777 174.915C83.4684 174.304 81.25 174.24 78.9089 172.749C78.6576 172.578 78.3651 172.482 78.064 172.473Z" fill="#252525"/>
<path d="M57.4235 62.6485C54.4169 64.1054 52.7035 73.8669 52.7035 73.8669L60.0525 76.8828C61.1283 74.1802 61.9978 71.3955 62.6533 68.554C63.6633 64.0569 60.5009 61.143 57.4235 62.6485Z" fill="#252525"/>
<path d="M61.3221 68.1507C59.5049 70.0448 58.6742 73.7551 58.3108 76.1688L60.0713 76.8924C61.1165 74.2665 61.9685 71.5635 62.6201 68.8063C62.4644 67.7768 62.0773 67.364 61.3221 68.1507Z" fill="#203048"/>
<path d="M77.4741 62.5803C77.4741 62.5803 81.1652 66.8734 77.6818 93.4188H59.1369C59.0095 90.5049 60.7984 76.2027 58.0513 62.4006C60.1008 61.9917 62.1742 61.7224 64.2581 61.5944C66.8833 61.434 69.5154 61.434 72.1405 61.5944C73.9405 61.7808 75.7237 62.1104 77.4741 62.5803Z" fill="#252525"/>
<path d="M79.1685 72.886L76.0438 67.3447C75.4406 69.9301 75.1943 72.5901 75.3122 75.2462C75.3972 77.1499 77.0917 84.2015 78.6162 85.2311C79.0208 81.1296 79.2051 77.0083 79.1685 72.886Z" fill="#203048"/>
<path d="M79.6027 66.3735C80.0747 68.7338 80.5467 71.1523 81.0518 73.5223C81.5568 75.8922 82.0807 78.2719 82.6896 80.569C82.8454 81.1372 82.9917 81.72 83.1616 82.2639L83.2891 82.6815L83.3504 82.8904V82.8661C83.3174 82.8224 83.2796 82.8175 83.3079 82.8661C83.5019 83.0841 83.7499 83.2436 84.0254 83.3275C84.4716 83.4983 84.9311 83.6299 85.3989 83.7208C87.6305 84.0847 89.8899 84.2359 92.1485 84.1725L92.5969 86.8144C91.9644 87.0232 91.3744 87.1738 90.7514 87.3243C90.1283 87.4749 89.5147 87.6011 88.887 87.6983C87.5882 87.9208 86.2713 88.0118 84.9552 87.9702C84.2237 87.95 83.4961 87.8523 82.784 87.6788C81.8785 87.4751 81.0277 87.0689 80.2918 86.489C79.8112 86.0897 79.4146 85.594 79.126 85.0321C79.0505 84.8864 78.9844 84.7213 78.9231 84.5804L78.8381 84.3522L78.6635 83.8665C78.4227 83.2498 78.2245 82.6427 78.0074 82.0356C77.2097 79.6074 76.5442 77.1549 75.9589 74.7072C75.3736 72.2596 74.8686 69.8168 74.4485 67.306L79.6027 66.3735Z" fill="#FFBE9D"/>
<path d="M72.8436 65.1832C71.8666 68.4419 75.8267 78.1597 75.8267 78.1597L83.7138 76.12C83.7138 76.12 83.4117 71.0692 81.6134 67.0626C78.9041 61.0212 74.0142 61.2737 72.8436 65.1832Z" fill="#252525"/>
<path d="M92.0823 84.1723L96.0094 84.0703L94.1214 88.276C94.1214 88.276 92.5213 88.4945 91.2091 86.2751L89.8262 84.5754L91.4168 84.25C91.6358 84.2026 91.8586 84.1766 92.0823 84.1723Z" fill="#FFBE9D"/>
<path d="M98.4876 84.8522L96.2409 88.3391L94.1216 88.276L96.0096 84.0703L98.4876 84.8522Z" fill="#FFBE9D"/>
<path d="M78.4324 164.625L78.253 168.884H74.7838L74.9632 164.625H78.4324Z" fill="#CE8661"/>
<path d="M50.1215 153.139L53.0243 155.096L49.7203 157.962L46.8223 156.009L50.1215 153.139Z" fill="#CE8661"/>
<path d="M65.2586 49.672C65.4663 53.2027 65.4144 55.2861 67.1466 57.0976C69.7521 59.8317 73.9953 58.2145 74.8166 54.6693C75.5577 51.4932 75.0951 46.2482 71.7345 44.8398C70.9929 44.5319 70.1875 44.4228 69.3938 44.5229C68.6001 44.6229 67.8441 44.9288 67.1968 45.4118C66.5494 45.8949 66.032 46.5392 65.693 47.2844C65.354 48.0296 65.2045 48.8511 65.2586 49.672Z" fill="#FFBE9D"/>
<path d="M61.2184 49.0508C62.0728 52.2706 64.0835 55.981 66.6842 56.2189C69.9127 56.5103 71.3712 53.0768 71.796 49.5316C73.7312 48.1669 72.7164 46.6663 74.6563 46.4769C77.1484 46.234 76.3508 41.5427 73.0704 40.79C73.0704 40.79 74.1701 42.9025 71.862 41.8341C69.667 40.7608 67.2284 40.3258 64.8104 40.5763C64.8104 40.5763 67.7556 42.0915 64.8764 42.7665C61.9972 43.4416 61.1382 45.2676 62.4645 46.37C62.4645 46.3749 60.6568 46.9334 61.2184 49.0508Z" fill="#252525"/>
<path d="M69.8277 50.2595C69.8911 51.1371 70.2346 51.9686 70.8047 52.6246C71.5599 53.4842 72.3481 52.95 72.4803 51.9058C72.603 50.9685 72.3529 49.3902 71.4278 48.9143C70.5026 48.4383 69.7663 49.2008 69.8277 50.2595Z" fill="#FFBE9D"/>
<path d="M71.1021 93.4194C71.1021 93.4194 74.4817 118.6 71.8196 128.692C67.5999 144.67 51.4669 158.156 51.4669 158.156L45.9965 154.465C45.9965 154.465 59.7364 143.077 61.4167 129.697C62.9271 117.687 59.1369 103.161 59.1369 93.4146L71.1021 93.4194Z" fill="#6AB058"/>
<path opacity="0.1" d="M71.1021 93.4194C71.1021 93.4194 74.4817 118.6 71.8196 128.692C67.5999 144.67 51.4669 158.156 51.4669 158.156L45.9965 154.465C45.9965 154.465 59.7364 143.077 61.4167 129.697C62.9271 117.687 59.1369 103.161 59.1369 93.4146L71.1021 93.4194Z" fill="black"/>
<path d="M72.4989 107.813C71.5992 106.753 70.6088 105.778 69.5395 104.899C70.1153 113.073 70.5873 125.18 70.0634 133.781C70.7678 132.132 71.3547 130.433 71.8193 128.696C73.1173 123.767 72.9804 115.253 72.4989 107.813Z" fill="#6AB058"/>
<path opacity="0.3" d="M72.4989 107.813C71.5992 106.753 70.6088 105.778 69.5395 104.899C70.1153 113.073 70.5873 125.18 70.0634 133.781C70.7678 132.132 71.3547 130.433 71.8193 128.696C73.1173 123.767 72.9804 115.253 72.4989 107.813Z" fill="black"/>
<path d="M53.671 156.897C53.6946 156.897 51.5517 158.354 51.5517 158.354L45.5762 154.323L47.4642 152.716L53.671 156.897Z" fill="#6AB058"/>
<path opacity="0.3" d="M53.671 156.897C53.6946 156.897 51.5517 158.354 51.5517 158.354L45.5762 154.323L47.4642 152.716L53.671 156.897Z" fill="black"/>
<path d="M77.6817 93.4189C77.6817 93.4189 82.902 116.196 83.2702 127.079C83.6855 139.279 79.5461 168.058 79.5461 168.058H73.6697C73.6697 168.058 72.9475 139.055 72.6879 127.944C72.4 115.827 65.4899 93.4189 65.4899 93.4189H77.6817Z" fill="#6AB058"/>
<path opacity="0.1" d="M77.6817 93.4189C77.6817 93.4189 82.902 116.196 83.2702 127.079C83.6855 139.279 79.5461 168.058 79.5461 168.058H73.6697C73.6697 168.058 72.9475 139.055 72.6879 127.944C72.4 115.827 65.4899 93.4189 65.4899 93.4189H77.6817Z" fill="black"/>
<path d="M80.6743 165.654C80.7026 165.654 80.3439 168.16 80.3439 168.16H73.1978L73.0043 165.921L80.6743 165.654Z" fill="#6AB058"/>
<path opacity="0.3" d="M80.6743 165.654C80.7026 165.654 80.3439 168.16 80.3439 168.16H73.1978L73.0043 165.921L80.6743 165.654Z" fill="black"/>
<path d="M168.032 71.5298C168.433 71.9183 168.749 72.2485 169.08 72.6176C169.41 72.9867 169.722 73.3461 170.024 73.7201C170.637 74.4631 171.213 75.245 171.77 76.0317C172.883 77.6099 173.872 79.276 174.73 81.0145L174.904 81.369C174.99 81.5406 175.061 81.7193 175.117 81.9032C175.231 82.2586 175.301 82.6273 175.324 83.0008C175.355 83.6592 175.267 84.3178 175.065 84.9433C174.72 85.9823 174.208 86.9542 173.55 87.8184C172.364 89.3856 170.965 90.7693 169.396 91.9269L168.221 90.538C168.773 89.8727 169.349 89.1588 169.863 88.4449C170.387 87.7531 170.86 87.0227 171.279 86.2594C171.671 85.5935 171.961 84.8695 172.138 84.1129C172.199 83.8422 172.211 83.5622 172.171 83.2873C172.155 83.1948 172.126 83.105 172.087 83.0202C172.069 82.9829 172.048 82.9472 172.025 82.9133L171.874 82.6511C170.964 81.1239 169.976 79.6471 168.915 78.2269C168.391 77.513 167.829 76.8282 167.263 76.1531C166.984 75.8132 166.696 75.483 166.408 75.1527C166.12 74.8225 165.809 74.4922 165.559 74.2348L168.032 71.5298Z" fill="#DFB19A"/>
<path d="M168.674 90.1306L165.148 89.5381L166.994 92.7142C166.994 92.7142 169.264 92.6317 169.911 91.2573L168.674 90.1306Z" fill="#DFB19A"/>
<path d="M162.543 91.0047L164.223 93.5835L166.994 92.7142L165.148 89.5381L162.543 91.0047Z" fill="#E4897B"/>
<path d="M168.504 173.026C168.264 173.047 168.025 172.98 167.829 172.836C167.77 172.779 167.726 172.707 167.702 172.627C167.678 172.547 167.675 172.462 167.692 172.38C167.696 172.328 167.713 172.278 167.742 172.235C167.771 172.192 167.811 172.158 167.857 172.137C168.268 171.948 169.344 172.657 169.467 172.739C169.481 172.748 169.492 172.761 169.498 172.777C169.504 172.793 169.504 172.81 169.5 172.827C169.498 172.843 169.491 172.859 169.48 172.871C169.469 172.883 169.455 172.892 169.439 172.895C169.133 172.974 168.819 173.018 168.504 173.026ZM168.032 172.273C167.998 172.268 167.963 172.268 167.928 172.273C167.907 172.283 167.89 172.299 167.877 172.318C167.865 172.338 167.858 172.361 167.857 172.385C167.845 172.439 167.846 172.495 167.861 172.549C167.876 172.603 167.904 172.651 167.942 172.691C168.122 172.856 168.584 172.88 169.203 172.754C168.848 172.513 168.45 172.349 168.032 172.273Z" fill="#6AB058"/>
<path d="M169.448 172.889H169.406C169.07 172.69 168.424 171.918 168.504 171.495C168.519 171.429 168.555 171.369 168.606 171.325C168.657 171.281 168.721 171.256 168.787 171.253C168.851 171.243 168.916 171.249 168.977 171.269C169.039 171.289 169.095 171.323 169.141 171.369C169.528 171.719 169.533 172.768 169.533 172.826C169.532 172.841 169.528 172.855 169.52 172.868C169.513 172.88 169.503 172.891 169.49 172.899L169.448 172.889ZM168.844 171.432H168.806C168.702 171.432 168.679 171.49 168.669 171.534C168.622 171.782 169.023 172.374 169.358 172.651C169.367 172.244 169.253 171.844 169.033 171.505C169.004 171.478 168.971 171.457 168.934 171.445C168.898 171.432 168.859 171.428 168.82 171.432H168.844Z" fill="#6AB058"/>
<path d="M152.418 173.026C152.117 173.055 151.815 172.976 151.564 172.802C151.508 172.751 151.464 172.686 151.437 172.613C151.41 172.54 151.4 172.462 151.408 172.385C151.411 172.337 151.426 172.292 151.451 172.252C151.476 172.212 151.51 172.179 151.55 172.156C151.989 171.904 153.395 172.642 153.556 172.734C153.571 172.744 153.582 172.758 153.59 172.774C153.597 172.791 153.6 172.809 153.598 172.827C153.596 172.844 153.588 172.859 153.576 172.871C153.564 172.884 153.549 172.892 153.532 172.895C153.166 172.975 152.793 173.019 152.418 173.026ZM151.791 172.273C151.737 172.269 151.683 172.281 151.635 172.307C151.618 172.315 151.604 172.328 151.594 172.345C151.584 172.361 151.578 172.38 151.578 172.399C151.571 172.45 151.576 172.501 151.592 172.55C151.609 172.598 151.636 172.641 151.673 172.676C151.89 172.875 152.47 172.909 153.254 172.773C152.797 172.523 152.302 172.354 151.791 172.273Z" fill="#6AB058"/>
<path d="M153.518 172.889H153.48C153.06 172.695 152.225 171.918 152.291 171.496C152.291 171.398 152.376 171.277 152.607 171.253C152.691 171.243 152.777 171.252 152.858 171.278C152.939 171.304 153.014 171.346 153.079 171.403C153.523 171.782 153.608 172.763 153.608 172.807C153.609 172.822 153.607 172.837 153.601 172.85C153.596 172.864 153.586 172.876 153.575 172.884C153.557 172.892 153.537 172.894 153.518 172.889ZM152.673 171.432H152.621C152.47 171.432 152.461 171.51 152.456 171.53C152.418 171.777 152.985 172.394 153.4 172.661C153.359 172.246 153.194 171.854 152.928 171.539C152.856 171.476 152.767 171.439 152.673 171.432Z" fill="#6AB058"/>
<path d="M158.905 60.1826C158.768 62.3777 158.4 66.836 160.037 68.0695C160.037 68.0695 159.74 70.3181 155.874 70.8426C151.626 71.4108 153.566 68.9437 153.566 68.9437C155.818 68.0598 155.53 66.2969 154.916 64.6846L158.905 60.1826Z" fill="#DFB19A"/>
<path d="M150.304 56.4847C150.281 56.4847 150.258 56.4795 150.236 56.4695C150.215 56.4594 150.196 56.4447 150.181 56.4264C150.046 56.2616 149.876 56.1319 149.683 56.0475C149.49 55.9631 149.281 55.9266 149.072 55.9407C149.05 55.9449 149.027 55.9444 149.005 55.9392C148.984 55.934 148.963 55.9243 148.945 55.9107C148.927 55.8971 148.912 55.8798 148.9 55.8599C148.889 55.84 148.881 55.8179 148.879 55.795C148.873 55.7494 148.886 55.7034 148.913 55.667C148.94 55.6306 148.981 55.6068 149.025 55.6008C149.291 55.5776 149.559 55.6212 149.806 55.7277C150.053 55.8343 150.27 56.0007 150.441 56.2127C150.461 56.238 150.474 56.2688 150.479 56.3014C150.483 56.334 150.478 56.3672 150.465 56.3972C150.451 56.4271 150.43 56.4526 150.403 56.4706C150.377 56.4887 150.345 56.4986 150.313 56.4992L150.304 56.4847Z" fill="#252525"/>
<path d="M149.568 58.6362C149.4 59.3328 149.141 60.0027 148.798 60.6274C148.956 60.7146 149.13 60.7651 149.309 60.7752C149.487 60.7852 149.666 60.7547 149.832 60.6857L149.568 58.6362Z" fill="#D38964"/>
<path d="M149.756 58.102C149.794 58.3934 149.676 58.6459 149.492 58.675C149.308 58.7042 149.124 58.4808 149.091 58.1894C149.058 57.898 149.171 57.6455 149.355 57.6212C149.539 57.5969 149.723 57.7912 149.756 58.102Z" fill="#252525"/>
<path d="M149.44 57.6259L148.737 57.5142C148.737 57.5142 149.152 58.0144 149.44 57.6259Z" fill="#252525"/>
<path d="M157.407 172.812H153.867L153.631 164.386H157.171L157.407 172.812Z" fill="#FFBE9D"/>
<path d="M173.479 172.812H169.939L168.801 164.386H172.341L173.479 172.812Z" fill="#FFBE9D"/>
<path d="M169.722 172.404H173.696C173.764 172.403 173.83 172.428 173.881 172.474C173.932 172.519 173.965 172.582 173.975 172.652L174.447 175.891C174.455 175.972 174.447 176.055 174.422 176.133C174.398 176.211 174.358 176.283 174.304 176.344C174.251 176.405 174.185 176.454 174.112 176.487C174.039 176.52 173.96 176.537 173.88 176.537C172.497 176.512 171.827 176.43 170.081 176.43C169.004 176.43 167.433 176.542 165.951 176.542C164.469 176.542 164.388 175.031 165.007 174.895C167.777 174.283 168.216 173.438 169.146 172.627C169.308 172.489 169.511 172.41 169.722 172.404Z" fill="#252525"/>
<path d="M153.749 172.404H157.719C157.787 172.403 157.853 172.428 157.906 172.473C157.958 172.519 157.992 172.582 158.002 172.652L158.474 175.891C158.483 175.972 158.475 176.055 158.45 176.133C158.425 176.211 158.385 176.283 158.332 176.344C158.278 176.405 158.213 176.454 158.14 176.487C158.067 176.52 157.988 176.537 157.908 176.537C156.525 176.512 155.854 176.43 154.108 176.43C153.032 176.43 150.804 176.542 149.322 176.542C147.84 176.542 147.76 175.031 148.378 174.895C151.149 174.283 152.239 173.438 153.174 172.627C153.336 172.489 153.539 172.41 153.749 172.404Z" fill="#252525"/>
<path d="M153.631 164.386L153.754 168.733H157.294L157.171 164.386H153.631Z" fill="#CE8661"/>
<path d="M172.341 164.386H168.801L169.391 168.733H172.927L172.341 164.386Z" fill="#CE8661"/>
<path d="M158.952 55.6368C159.192 59.2403 159.367 60.7603 157.847 62.834C155.558 65.947 151.206 65.4663 149.922 62.0084C148.766 58.8955 148.568 53.5291 151.787 51.6448C152.495 51.2272 153.295 51.0027 154.111 50.9925C154.927 50.9824 155.732 51.187 156.45 51.5869C157.168 51.9868 157.774 52.5687 158.212 53.2775C158.65 53.9863 158.905 54.7984 158.952 55.6368Z" fill="#DFB19A"/>
<path d="M161.183 59.1656C163.147 60.2923 164.605 57.5144 164.605 57.5144C164.605 57.5144 161.084 57.9078 161.4 55.7515C161.816 52.8911 159.824 49.4138 154.83 49.8606C154.552 49.8849 154.287 49.9189 154.028 49.9626C153.505 49.7076 152.914 49.6418 152.35 49.7758C151.786 49.9098 151.283 50.2357 150.922 50.7008C149.506 50.8222 147.594 52.5608 148.892 54.8579C148.984 54.594 149.125 54.3513 149.308 54.144C149.416 55.4893 150.559 57.6261 151.984 57.7669C152.291 59.6075 151.101 61.7395 151.512 63.6627C152.121 66.4357 156.666 67.0622 156.666 67.0622C156.51 66.7159 156.451 66.3311 156.498 65.9521C156.545 65.5731 156.695 65.2155 156.931 64.9205C160.018 66.3775 162.052 64.9545 162.052 64.9545C159.947 64.1483 160.584 62.7108 160.584 62.7108C161.311 63.0429 162.134 63.0721 162.882 62.7922C163.629 62.5123 164.242 61.9453 164.591 61.2102C163.892 61.2443 163.198 61.0694 162.593 60.7066C161.989 60.3438 161.499 59.8086 161.183 59.1656Z" fill="#252525"/>
<path d="M153.024 58.1383C153.032 58.4842 152.974 58.8283 152.852 59.1508C152.731 59.4734 152.548 59.768 152.316 60.0178C151.693 60.6831 150.928 60.2169 150.72 59.367C150.536 58.5997 150.64 57.3322 151.452 56.9825C151.631 56.9103 151.824 56.8851 152.014 56.9093C152.205 56.9336 152.387 57.0065 152.543 57.1213C152.699 57.2362 152.825 57.3894 152.909 57.567C152.993 57.7446 153.032 57.941 153.024 58.1383Z" fill="#DFB19A"/>
<path d="M156.157 91.8933C156.157 91.8933 157.053 115.865 159.187 129.939C160.905 141.313 168.537 167.887 168.537 167.887H173.361C173.361 167.887 169.382 142.221 168.509 130.978C166.3 102.524 172.035 96.4146 166.621 90.4897L156.157 91.8933Z" fill="#252525"/>
<path d="M160.188 99.4745C160.188 99.4745 158.007 99.086 156.732 103.36C157.204 111.455 158.012 122.198 159.187 129.939C159.446 131.663 159.843 133.742 160.329 136.019C159.409 122.344 160.188 99.4745 160.188 99.4745Z" fill="#161F33"/>
<path d="M152.395 92.3987C152.395 92.3987 148.421 118.92 148.652 130.017C148.893 141.561 153.004 167.897 153.004 167.897H157.785C157.785 167.897 157.03 142.245 157.45 130.91C157.922 118.551 162.826 91.0049 162.826 91.0049L152.395 92.3987Z" fill="#252525"/>
<path d="M174.06 168.12H167.645L167.145 165.906L174.013 165.954L174.06 168.12Z" fill="#6AB058"/>
<path opacity="0.2" d="M174.06 168.12H167.645L167.145 165.906L174.013 165.954L174.06 168.12Z" fill="black"/>
<path d="M166.38 68.2569C168.226 68.4415 171.029 73.837 171.029 73.837L166.371 77.5133C166.371 77.5133 162.514 74.0313 162.972 72.0741C163.449 70.0393 164.61 68.087 166.38 68.2569Z" fill="#6AB058"/>
<path opacity="0.1" d="M166.38 68.2569C168.226 68.4415 171.029 73.837 171.029 73.837L166.371 77.5133C166.371 77.5133 162.514 74.0313 162.972 72.0741C163.449 70.0393 164.61 68.087 166.38 68.2569Z" fill="black"/>
<path d="M164.988 70.5781C164.517 70.4477 164.03 70.392 163.543 70.413C163.296 70.944 163.104 71.5008 162.972 72.0739C162.5 74.0165 166.371 77.5132 166.371 77.5132L166.715 77.2412L164.988 70.5781Z" fill="#6AB058"/>
<path opacity="0.3" d="M164.988 70.5781C164.517 70.4477 164.03 70.392 163.543 70.413C163.296 70.944 163.104 71.5008 162.972 72.0739C162.5 74.0165 166.371 77.5132 166.371 77.5132L166.715 77.2412L164.988 70.5781Z" fill="black"/>
<path d="M150.813 75.7602C149.468 79.2617 148.052 82.8215 146.924 86.3327C146.849 86.5561 146.787 86.7698 146.721 86.9883L146.561 87.5274C146.517 87.6861 146.517 87.8543 146.561 88.013C146.827 88.6202 147.25 89.1408 147.783 89.5185C149.194 90.5603 150.732 91.4077 152.357 92.039L151.932 93.8262C149.933 93.555 148 92.9063 146.23 91.9128C145.141 91.3141 144.254 90.3895 143.686 89.2611C143.36 88.54 143.247 87.7362 143.361 86.9495C143.371 86.8531 143.387 86.7575 143.408 86.6629L143.455 86.459L143.535 86.0899C143.592 85.8422 143.648 85.6042 143.71 85.3614C144.182 83.4188 144.786 81.5733 145.423 79.7425C146.06 77.9116 146.726 76.105 147.476 74.3032L150.813 75.7602Z" fill="#DFB19A"/>
<path d="M147.949 70.8454C147.949 70.8454 146.353 71.6759 152.395 92.3984L166.64 90.485C165.639 84.5504 165.167 80.874 166.38 68.2569C164.337 68.1064 162.287 68.1064 160.244 68.2569C158.069 68.387 155.907 68.6792 153.773 69.1311C151.04 69.7576 147.949 70.8454 147.949 70.8454Z" fill="#6AB058"/>
<path opacity="0.1" d="M147.949 70.8454C147.949 70.8454 146.353 71.6759 152.395 92.3984L166.64 90.485C165.639 84.5504 165.167 80.874 166.38 68.2569C164.337 68.1064 162.287 68.1064 160.244 68.2569C158.069 68.387 155.907 68.6792 153.773 69.1311C151.04 69.7576 147.949 70.8454 147.949 70.8454Z" fill="black"/>
<path d="M166.744 89.5961L167.56 90.8151C167.622 90.9122 167.518 91.0288 167.357 91.0531L152.419 93.0637C152.291 93.0637 152.173 93.0297 152.154 92.9471L151.862 91.6504C151.838 91.563 151.942 91.4707 152.083 91.4513L166.508 89.5087C166.551 89.5016 166.595 89.5059 166.637 89.5212C166.678 89.5364 166.715 89.5622 166.744 89.5961Z" fill="#6AB058"/>
<path opacity="0.2" d="M166.744 89.5961L167.56 90.8151C167.622 90.9122 167.518 91.0288 167.357 91.0531L152.419 93.0637C152.291 93.0637 152.173 93.0297 152.154 92.9471L151.862 91.6504C151.838 91.563 151.942 91.4707 152.083 91.4513L166.508 89.5087C166.551 89.5016 166.595 89.5059 166.637 89.5212C166.678 89.5364 166.715 89.5622 166.744 89.5961Z" fill="black"/>
<path d="M165.016 91.5148L165.403 91.4614C165.479 91.4614 165.531 91.4031 165.521 91.3546L165.125 89.6742C165.11 89.6455 165.086 89.6231 165.056 89.6107C165.027 89.5983 164.994 89.5967 164.964 89.6062L164.577 89.6548C164.497 89.6548 164.445 89.7131 164.459 89.7665L164.856 91.442C164.865 91.4954 164.941 91.5245 165.016 91.5148Z" fill="#252525"/>
<path d="M155.651 92.7581L156.039 92.7047C156.114 92.7047 156.171 92.6464 156.157 92.5979L155.76 90.9175C155.745 90.8892 155.721 90.8668 155.692 90.8536C155.663 90.8405 155.63 90.8374 155.6 90.8447L155.213 90.8981C155.137 90.8981 155.08 90.9564 155.095 91.005L155.491 92.6853C155.5 92.7581 155.576 92.7873 155.651 92.7581Z" fill="#252525"/>
<path d="M148.614 77.8774C149.006 79.752 149.558 82.1268 150.365 85.133L150.54 77.5132L148.614 77.8774Z" fill="#6AB058"/>
<path opacity="0.3" d="M148.614 77.8774C149.006 79.752 149.558 82.1268 150.365 85.133L150.54 77.5132L148.614 77.8774Z" fill="black"/>
<path d="M147.949 70.8458C146.179 71.5791 144.645 77.81 144.645 77.81L150.734 80.8598C150.734 80.8598 153.674 73.24 152.357 71.7539C151.04 70.2679 149.988 70.0056 147.949 70.8458Z" fill="#6AB058"/>
<path opacity="0.1" d="M147.949 70.8458C146.179 71.5791 144.645 77.81 144.645 77.81L150.734 80.8598C150.734 80.8598 153.674 73.24 152.357 71.7539C151.04 70.2679 149.988 70.0056 147.949 70.8458Z" fill="black"/>
<path d="M158.602 168.12H152.187L151.687 165.906L158.828 165.954L158.602 168.12Z" fill="#6AB058"/>
<path opacity="0.2" d="M158.602 168.12H152.187L151.687 165.906L158.828 165.954L158.602 168.12Z" fill="black"/>
<path d="M152.456 91.4364L151.942 91.2179C151.815 91.1649 151.677 91.1474 151.542 91.167C151.407 91.1865 151.279 91.2426 151.172 91.3294C151.065 91.4162 150.981 91.5306 150.931 91.6612C150.88 91.7917 150.864 91.9336 150.884 92.0726L151.257 94.6028C151.275 94.7294 151.32 94.8504 151.389 94.957C151.458 95.0635 151.549 95.153 151.656 95.219C151.762 95.285 151.882 95.3258 152.005 95.3385C152.129 95.3512 152.254 95.3355 152.371 95.2924C152.558 95.2225 152.734 95.1225 152.89 94.9962C153.061 94.8505 153.196 94.6656 153.285 94.4564C153.373 94.2472 153.413 94.0196 153.4 93.7918L153.348 92.7428C153.339 92.4593 153.25 92.1847 153.092 91.9527C152.933 91.7206 152.712 91.5412 152.456 91.4364Z" fill="#DFB19A"/>
</svg>
