<svg width="120" height="120" viewBox="0 0 120 120" fill="none" xmlns="http://www.w3.org/2000/svg">
<path d="M120 91.776H0V91.836H120V91.776Z" fill="#E0E0E0"/>
<path d="M91.0392 93.9888H82.7832V94.0488H91.0392V93.9888Z" fill="#E0E0E0"/>
<path d="M100.752 93.8184H96.1056V93.8784H100.752V93.8184Z" fill="#E0E0E0"/>
<path d="M59.3616 93.96H53.1984V94.02H59.3616V93.96Z" fill="#E0E0E0"/>
<path d="M63.8136 94.812H59.604V94.872H63.8136V94.812Z" fill="#E0E0E0"/>
<path d="M34.7208 93.3528H22.0032V93.4128H34.7208V93.3528Z" fill="#E0E0E0"/>
<path d="M56.88 81.072H10.5384C10.1754 81.0714 9.82742 80.9267 9.57094 80.6698C9.31446 80.4129 9.17041 80.0647 9.17041 79.7016V14.5584C9.17357 14.1975 9.31902 13.8523 9.57516 13.598C9.8313 13.3436 10.1774 13.2006 10.5384 13.2H56.88C57.2435 13.2 57.592 13.3444 57.849 13.6014C58.106 13.8584 58.2504 14.207 58.2504 14.5704V79.7016C58.2504 80.0651 58.106 80.4136 57.849 80.6706C57.592 80.9276 57.2435 81.072 56.88 81.072ZM10.5384 13.248C10.1913 13.2486 9.8586 13.387 9.61337 13.6327C9.36814 13.8783 9.23041 14.2113 9.23041 14.5584V79.7016C9.23041 80.0487 9.36814 80.3817 9.61337 80.6274C9.8586 80.873 10.1913 81.0114 10.5384 81.012H56.88C57.2274 81.0114 57.5603 80.8731 57.8059 80.6275C58.0515 80.3819 58.1898 80.049 58.1904 79.7016V14.5584C58.1898 14.2111 58.0515 13.8781 57.8059 13.6325C57.5603 13.3869 57.2274 13.2486 56.88 13.248H10.5384Z" fill="#E0E0E0"/>
<path d="M108.794 81.072H62.4504C62.0872 81.0714 61.739 80.9268 61.4821 80.6699C61.2252 80.4131 61.0807 80.0649 61.08 79.7016V14.5584C61.0838 14.1972 61.2298 13.8521 61.4863 13.5978C61.7428 13.3436 62.0892 13.2006 62.4504 13.2H108.794C109.155 13.2013 109.501 13.3446 109.756 13.5988C110.012 13.8531 110.157 14.1979 110.16 14.5584V79.7016C110.16 80.0642 110.016 80.4121 109.76 80.6689C109.504 80.9258 109.157 81.0707 108.794 81.072ZM62.4504 13.248C62.1031 13.2486 61.7701 13.3869 61.5245 13.6325C61.2789 13.8781 61.1407 14.2111 61.14 14.5584V79.7016C61.1407 80.049 61.2789 80.3819 61.5245 80.6275C61.7701 80.8731 62.1031 81.0114 62.4504 81.012H108.794C109.142 81.0114 109.475 80.8731 109.72 80.6275C109.966 80.3819 110.104 80.049 110.105 79.7016V14.5584C110.104 14.2111 109.966 13.8781 109.72 13.6325C109.475 13.3869 109.142 13.2486 108.794 13.248H62.4504Z" fill="#E0E0E0"/>
<path d="M104.167 19.0248H67.9992V50.1192H104.167V19.0248Z" fill="#E0E0E0"/>
<path d="M104.971 19.0248H68.8032V50.1192H104.971V19.0248Z" fill="#F0F0F0"/>
<path d="M103.529 48.66V20.484L70.2456 20.484V48.66H103.529Z" fill="#FAFAFA"/>
<path d="M92.892 48.66V20.484H90.7176V48.66H92.892Z" fill="#E0E0E0"/>
<path d="M81.4536 48.66V20.484H79.2792V48.66H81.4536Z" fill="#E0E0E0"/>
<path d="M93.6576 49.584V19.3968H91.4832V49.584H93.6576Z" fill="#F0F0F0"/>
<path d="M82.2168 49.5864V19.3992H80.0424V49.5864H82.2168Z" fill="#F0F0F0"/>
<path d="M103.529 48.6576V20.4816H102.922V48.6576H103.529Z" fill="#E0E0E0"/>
<path d="M42.5616 43.5816C42.5616 43.5816 38.16 36 44.268 29.9544C44.268 29.9544 45.8616 30.9936 45.8376 32.3904C45.8136 33.7872 44.1288 34.14 44.4912 35.3064C44.8536 36.4728 46.44 37.6128 45.3984 38.5776C44.3568 39.5424 45.5664 40.3968 45.4968 41.5776C45.4272 42.7584 42.5616 43.5816 42.5616 43.5816Z" fill="#E0E0E0"/>
<path d="M43.2528 44.8224C43.2528 44.8224 45.0384 36.2352 37.3392 32.4288C37.3392 32.4288 36.1536 33.9168 36.6192 35.2344C37.0848 36.552 38.7912 36.3552 38.8152 37.5768C38.8392 38.7984 37.6944 40.3824 38.9856 40.968C40.2768 41.5536 39.4008 42.7488 39.84 43.848C40.2792 44.9472 43.2528 44.8224 43.2528 44.8224Z" fill="#E6E6E6"/>
<path d="M39.3336 42.6408C39.3336 42.6408 39.4104 50.0544 42.3744 50.0544C45.3384 50.0544 45.4128 42.6408 45.4128 42.6408H39.3336Z" fill="#F0F0F0"/>
<path d="M21.5256 47.2656C21.5256 47.2656 21.6912 50.0544 28.02 50.0544C34.3488 50.0544 34.5168 47.2656 34.5168 47.2656H21.5256Z" fill="#E6E6E6"/>
<path d="M88.248 64.08H84.9072C84.491 64.08 84.1536 64.4174 84.1536 64.8336V70.3584C84.1536 70.7746 84.491 71.112 84.9072 71.112H88.248C88.6642 71.112 89.0016 70.7746 89.0016 70.3584V64.8336C89.0016 64.4174 88.6642 64.08 88.248 64.08Z" fill="#F0F0F0"/>
<path d="M97.1088 66.3792H94.86C94.5804 66.3792 94.3536 66.6059 94.3536 66.8856V70.6056C94.3536 70.8853 94.5804 71.112 94.86 71.112H97.1088C97.3885 71.112 97.6152 70.8853 97.6152 70.6056V66.8856C97.6152 66.6059 97.3885 66.3792 97.1088 66.3792Z" fill="#E6E6E6"/>
<path d="M97.4448 65.9208H94.524C94.4299 65.9208 94.3536 65.9971 94.3536 66.0912V66.2832C94.3536 66.3773 94.4299 66.4536 94.524 66.4536H97.4448C97.5389 66.4536 97.6152 66.3773 97.6152 66.2832V66.0912C97.6152 65.9971 97.5389 65.9208 97.4448 65.9208Z" fill="#F0F0F0"/>
<path d="M76.4208 67.2C76.4208 67.2 76.5408 71.112 81.1224 71.112C85.704 71.112 85.8264 67.2 85.8264 67.2H76.4208Z" fill="#E6E6E6"/>
<path d="M65.0256 62.0328H71.9592V60.6648H65.0256V62.0328Z" fill="#E0E0E0"/>
<path d="M106.43 60.6672H71.9592V62.0352H106.43V60.6672Z" fill="#F0F0F0"/>
<path d="M65.0256 72.48H71.9592V71.112H65.0256V72.48Z" fill="#E0E0E0"/>
<path d="M106.43 71.112H71.9592V72.48H106.43V71.112Z" fill="#F0F0F0"/>
<path d="M67.524 62.0328H66.2448V91.7736H67.524V62.0328Z" fill="#E0E0E0"/>
<path d="M73.2384 62.0328H71.9592V91.7736H73.2384V62.0328Z" fill="#F0F0F0"/>
<path d="M101.995 62.0328H100.716V91.7736H101.995V62.0328Z" fill="#E0E0E0"/>
<path d="M106.43 62.0328H105.151V91.7736H106.43V62.0328Z" fill="#F0F0F0"/>
<path d="M21.5256 51.7944H14.9688V89.976H21.5256V51.7944Z" fill="#E6E6E6"/>
<path d="M48.5616 89.9736H16.2288V91.776H48.5616V89.9736Z" fill="#E6E6E6"/>
<path d="M21.5256 89.9736H49.8192L49.8192 51.792H21.5256L21.5256 89.9736Z" fill="#F0F0F0"/>
<path d="M24.1032 75.5472H47.2416V66.2208H24.1032V75.5472Z" fill="#E6E6E6"/>
<path d="M24.1032 86.5728H47.2416V77.2464H24.1032V86.5728Z" fill="#E6E6E6"/>
<path d="M38.2704 67.2432H33.0744C32.9053 67.2426 32.7432 67.1751 32.6237 67.0555C32.5041 66.9359 32.4366 66.7739 32.436 66.6048C32.436 66.4352 32.5032 66.2726 32.6228 66.1525C32.7425 66.0324 32.9048 65.9646 33.0744 65.964H38.2704C38.4399 65.9646 38.6023 66.0324 38.7219 66.1525C38.8416 66.2726 38.9088 66.4352 38.9088 66.6048C38.9081 66.7739 38.8407 66.9359 38.7211 67.0555C38.6015 67.1751 38.4395 67.2426 38.2704 67.2432Z" fill="#F0F0F0"/>
<path d="M24.1032 64.5192H47.2416V55.1928H24.1032V64.5192Z" fill="#E6E6E6"/>
<path d="M38.2704 56.2176H33.0744C32.9048 56.217 32.7425 56.1492 32.6228 56.0291C32.5032 55.909 32.436 55.7464 32.436 55.5768C32.4366 55.4077 32.5041 55.2457 32.6237 55.1261C32.7432 55.0065 32.9053 54.939 33.0744 54.9384H38.2704C38.4395 54.939 38.6015 55.0065 38.7211 55.1261C38.8407 55.2457 38.9081 55.4077 38.9088 55.5768C38.9088 55.7464 38.8416 55.909 38.7219 56.0291C38.6023 56.1492 38.4399 56.217 38.2704 56.2176Z" fill="#F0F0F0"/>
<path d="M38.2704 78.2688H33.0744C32.9053 78.2682 32.7432 78.2007 32.6237 78.0811C32.5041 77.9616 32.4366 77.7995 32.436 77.6304C32.436 77.4609 32.5032 77.2983 32.6228 77.1782C32.7425 77.0581 32.9048 76.9903 33.0744 76.9896H38.2704C38.4399 76.9903 38.6023 77.0581 38.7219 77.1782C38.8416 77.2983 38.9088 77.4609 38.9088 77.6304C38.9081 77.7995 38.8407 77.9616 38.7211 78.0811C38.6015 78.2007 38.4395 78.2682 38.2704 78.2688Z" fill="#F0F0F0"/>
<path d="M50.6928 50.0544H21.5256V51.7944H50.6928V50.0544Z" fill="#E6E6E6"/>
<path d="M14.052 51.792H21.5256V50.052H14.052V51.792Z" fill="#E0E0E0"/>
<path d="M28.8336 20.484H18.2256V32.1336H28.8336V20.484Z" fill="#E6E6E6"/>
<path d="M29.9832 20.484H19.0248V32.1336H29.9832V20.484Z" fill="#F0F0F0"/>
<path d="M29.064 31.2144V21.4008H19.9416V31.2144H29.064Z" fill="#FAFAFA"/>
<path d="M26.8536 28.836V23.7792H22.1544V28.836H26.8536Z" fill="#F0F0F0"/>
<path d="M40.0176 17.0448H31.9728V25.6872H40.0176V17.0448Z" fill="#E6E6E6"/>
<path d="M40.872 17.0448H32.7432V25.6872H40.872V17.0448Z" fill="#F0F0F0"/>
<path d="M40.1904 25.0056V17.7264H33.4248V25.0056H40.1904Z" fill="#FAFAFA"/>
<path d="M36.8064 19.524L34.956 22.7304H38.6568L36.8064 19.524Z" fill="#F0F0F0"/>
<path d="M60 102.614C85.6998 102.614 106.534 101.398 106.534 99.8976C106.534 98.3971 85.6998 97.1808 60 97.1808C34.3002 97.1808 13.4664 98.3971 13.4664 99.8976C13.4664 101.398 34.3002 102.614 60 102.614Z" fill="#F5F5F5"/>
<path d="M100.752 34.9968H77.208C75.9661 34.9968 74.9592 36.0036 74.9592 37.2456V43.6488C74.9592 44.8908 75.9661 45.8976 77.208 45.8976H100.752C101.994 45.8976 103.001 44.8908 103.001 43.6488V37.2456C103.001 36.0036 101.994 34.9968 100.752 34.9968Z" fill="#6AB058"/>
<path d="M96.0816 36.8352H77.6904C77.473 36.8352 77.2968 37.0114 77.2968 37.2288V37.6608C77.2968 37.8782 77.473 38.0544 77.6904 38.0544H96.0816C96.299 38.0544 96.4752 37.8782 96.4752 37.6608V37.2288C96.4752 37.0114 96.299 36.8352 96.0816 36.8352Z" fill="#6AB058"/>
<path d="M90.2568 39.7728H77.6904C77.473 39.7728 77.2968 39.949 77.2968 40.1664V40.5984C77.2968 40.8158 77.473 40.992 77.6904 40.992H90.2568C90.4742 40.992 90.6504 40.8158 90.6504 40.5984V40.1664C90.6504 39.949 90.4742 39.7728 90.2568 39.7728Z" fill="#6AB058"/>
<path d="M86.8872 42.7104H77.6904C77.473 42.7104 77.2968 42.8866 77.2968 43.104V43.536C77.2968 43.7534 77.473 43.9296 77.6904 43.9296H86.8872C87.1046 43.9296 87.2808 43.7534 87.2808 43.536V43.104C87.2808 42.8866 87.1046 42.7104 86.8872 42.7104Z" fill="#6AB058"/>
<path d="M98.2848 42.7104H89.088C88.8706 42.7104 88.6944 42.8866 88.6944 43.104V43.536C88.6944 43.7534 88.8706 43.9296 89.088 43.9296H98.2848C98.5022 43.9296 98.6784 43.7534 98.6784 43.536V43.104C98.6784 42.8866 98.5022 42.7104 98.2848 42.7104Z" fill="#6AB058"/>
<g opacity="0.5">
<path d="M96.0816 36.8352H77.6904C77.473 36.8352 77.2968 37.0114 77.2968 37.2288V37.6608C77.2968 37.8782 77.473 38.0544 77.6904 38.0544H96.0816C96.299 38.0544 96.4752 37.8782 96.4752 37.6608V37.2288C96.4752 37.0114 96.299 36.8352 96.0816 36.8352Z" fill="white"/>
<path d="M90.2568 39.7728H77.6904C77.473 39.7728 77.2968 39.949 77.2968 40.1664V40.5984C77.2968 40.8158 77.473 40.992 77.6904 40.992H90.2568C90.4742 40.992 90.6504 40.8158 90.6504 40.5984V40.1664C90.6504 39.949 90.4742 39.7728 90.2568 39.7728Z" fill="white"/>
<path d="M86.8872 42.7104H77.6904C77.473 42.7104 77.2968 42.8866 77.2968 43.104V43.536C77.2968 43.7534 77.473 43.9296 77.6904 43.9296H86.8872C87.1046 43.9296 87.2808 43.7534 87.2808 43.536V43.104C87.2808 42.8866 87.1046 42.7104 86.8872 42.7104Z" fill="white"/>
<path d="M98.2848 42.7104H89.088C88.8706 42.7104 88.6944 42.8866 88.6944 43.104V43.536C88.6944 43.7534 88.8706 43.9296 89.088 43.9296H98.2848C98.5022 43.9296 98.6784 43.7534 98.6784 43.536V43.104C98.6784 42.8866 98.5022 42.7104 98.2848 42.7104Z" fill="white"/>
</g>
<path d="M81.8928 32.4552H55.1688C53.3476 32.4552 51.8712 33.9316 51.8712 35.7528V45.1416C51.8712 46.9628 53.3476 48.4392 55.1688 48.4392H81.8928C83.714 48.4392 85.1904 46.9628 85.1904 45.1416V35.7528C85.1904 33.9316 83.714 32.4552 81.8928 32.4552Z" fill="#6AB058"/>
<path d="M82.8384 35.1504H55.8768C55.5574 35.1504 55.2984 35.4093 55.2984 35.7288V36.36C55.2984 36.6794 55.5574 36.9384 55.8768 36.9384H82.8384C83.1578 36.9384 83.4168 36.6794 83.4168 36.36V35.7288C83.4168 35.4093 83.1578 35.1504 82.8384 35.1504Z" fill="#6AB058"/>
<path d="M74.2968 39.4584H55.8768C55.5574 39.4584 55.2984 39.7173 55.2984 40.0368V40.668C55.2984 40.9874 55.5574 41.2464 55.8768 41.2464H74.2968C74.6162 41.2464 74.8752 40.9874 74.8752 40.668V40.0368C74.8752 39.7173 74.6162 39.4584 74.2968 39.4584Z" fill="#6AB058"/>
<path d="M69.3576 43.7664H55.8768C55.5574 43.7664 55.2984 44.0254 55.2984 44.3448V44.976C55.2984 45.2955 55.5574 45.5544 55.8768 45.5544H69.3576C69.677 45.5544 69.936 45.2955 69.936 44.976V44.3448C69.936 44.0254 69.677 43.7664 69.3576 43.7664Z" fill="#6AB058"/>
<path d="M83.82 43.7664H72.588C72.2685 43.7664 72.0096 44.0254 72.0096 44.3448V44.976C72.0096 45.2955 72.2685 45.5544 72.588 45.5544H83.82C84.1394 45.5544 84.3984 45.2955 84.3984 44.976V44.3448C84.3984 44.0254 84.1394 43.7664 83.82 43.7664Z" fill="#6AB058"/>
<g opacity="0.5">
<path d="M82.8384 35.1504H55.8768C55.5574 35.1504 55.2984 35.4093 55.2984 35.7288V36.36C55.2984 36.6794 55.5574 36.9384 55.8768 36.9384H82.8384C83.1578 36.9384 83.4168 36.6794 83.4168 36.36V35.7288C83.4168 35.4093 83.1578 35.1504 82.8384 35.1504Z" fill="white"/>
<path d="M74.2968 39.4584H55.8768C55.5574 39.4584 55.2984 39.7173 55.2984 40.0368V40.668C55.2984 40.9874 55.5574 41.2464 55.8768 41.2464H74.2968C74.6162 41.2464 74.8752 40.9874 74.8752 40.668V40.0368C74.8752 39.7173 74.6162 39.4584 74.2968 39.4584Z" fill="white"/>
<path d="M69.3576 43.7664H55.8768C55.5574 43.7664 55.2984 44.0254 55.2984 44.3448V44.976C55.2984 45.2955 55.5574 45.5544 55.8768 45.5544H69.3576C69.677 45.5544 69.936 45.2955 69.936 44.976V44.3448C69.936 44.0254 69.677 43.7664 69.3576 43.7664Z" fill="white"/>
<path d="M83.82 43.7664H72.588C72.2685 43.7664 72.0096 44.0254 72.0096 44.3448V44.976C72.0096 45.2955 72.2685 45.5544 72.588 45.5544H83.82C84.1394 45.5544 84.3984 45.2955 84.3984 44.976V44.3448C84.3984 44.0254 84.1394 43.7664 83.82 43.7664Z" fill="white"/>
</g>
<path d="M65.2776 51.336H52.4064C51.5554 51.336 50.8656 52.0258 50.8656 52.8768V72.1584C50.8656 73.0094 51.5554 73.6992 52.4064 73.6992H65.2776C66.1286 73.6992 66.8184 73.0094 66.8184 72.1584V52.8768C66.8184 52.0258 66.1286 51.336 65.2776 51.336Z" fill="#6AB058"/>
<path opacity="0.4" d="M65.2776 51.336H52.4064C51.5554 51.336 50.8656 52.0258 50.8656 52.8768V72.1584C50.8656 73.0094 51.5554 73.6992 52.4064 73.6992H65.2776C66.1286 73.6992 66.8184 73.0094 66.8184 72.1584V52.8768C66.8184 52.0258 66.1286 51.336 65.2776 51.336Z" fill="#252525"/>
<path d="M64.6872 53.6688H52.9944C52.838 53.6688 52.7112 53.7956 52.7112 53.952V54.3768C52.7112 54.5332 52.838 54.66 52.9944 54.66H64.6872C64.8436 54.66 64.9704 54.5332 64.9704 54.3768V53.952C64.9704 53.7956 64.8436 53.6688 64.6872 53.6688Z" fill="#FAFAFA"/>
<path d="M60.9648 56.0544H52.9944C52.838 56.0544 52.7112 56.1812 52.7112 56.3376V56.7624C52.7112 56.9188 52.838 57.0456 52.9944 57.0456H60.9648C61.1212 57.0456 61.248 56.9188 61.248 56.7624V56.3376C61.248 56.1812 61.1212 56.0544 60.9648 56.0544Z" fill="#FAFAFA"/>
<path d="M64.6872 58.4424H52.9944C52.838 58.4424 52.7112 58.5692 52.7112 58.7256V59.1504C52.7112 59.3068 52.838 59.4336 52.9944 59.4336H64.6872C64.8436 59.4336 64.9704 59.3068 64.9704 59.1504V58.7256C64.9704 58.5692 64.8436 58.4424 64.6872 58.4424Z" fill="#FAFAFA"/>
<path d="M57.3408 60.828H52.9944C52.838 60.828 52.7112 60.9548 52.7112 61.1112V61.536C52.7112 61.6924 52.838 61.8192 52.9944 61.8192H57.3408C57.4972 61.8192 57.624 61.6924 57.624 61.536V61.1112C57.624 60.9548 57.4972 60.828 57.3408 60.828Z" fill="#FAFAFA"/>
<path d="M63.4224 60.828H59.076C58.9196 60.828 58.7928 60.9548 58.7928 61.1112V61.536C58.7928 61.6924 58.9196 61.8192 59.076 61.8192H63.4224C63.5788 61.8192 63.7056 61.6924 63.7056 61.536V61.1112C63.7056 60.9548 63.5788 60.828 63.4224 60.828Z" fill="#FAFAFA"/>
<path d="M64.6872 63.216H52.9944C52.838 63.216 52.7112 63.3428 52.7112 63.4992V63.924C52.7112 64.0804 52.838 64.2072 52.9944 64.2072H64.6872C64.8436 64.2072 64.9704 64.0804 64.9704 63.924V63.4992C64.9704 63.3428 64.8436 63.216 64.6872 63.216Z" fill="#FAFAFA"/>
<path d="M64.6872 65.6016H52.9944C52.838 65.6016 52.7112 65.7284 52.7112 65.8848V66.3096C52.7112 66.466 52.838 66.5928 52.9944 66.5928H64.6872C64.8436 66.5928 64.9704 66.466 64.9704 66.3096V65.8848C64.9704 65.7284 64.8436 65.6016 64.6872 65.6016Z" fill="#FAFAFA"/>
<path d="M62.6136 67.9896H52.9944C52.838 67.9896 52.7112 68.1164 52.7112 68.2728V68.6976C52.7112 68.854 52.838 68.9808 52.9944 68.9808H62.6136C62.77 68.9808 62.8968 68.854 62.8968 68.6976V68.2728C62.8968 68.1164 62.77 67.9896 62.6136 67.9896Z" fill="#FAFAFA"/>
<path d="M57.4824 70.3752H52.9944C52.838 70.3752 52.7112 70.502 52.7112 70.6584V71.0832C52.7112 71.2396 52.838 71.3664 52.9944 71.3664H57.4824C57.6388 71.3664 57.7656 71.2396 57.7656 71.0832V70.6584C57.7656 70.502 57.6388 70.3752 57.4824 70.3752Z" fill="#FAFAFA"/>
<path d="M68.76 51.1992H50.9064L58.8 57.48L70.9032 62.04V53.3376C70.9019 52.77 70.6755 52.2261 70.2737 51.8252C69.872 51.4244 69.3276 51.1992 68.76 51.1992Z" fill="#6AB058"/>
<path opacity="0.4" d="M68.76 51.1992H50.9064L58.8 57.48L70.9032 62.04V53.3376C70.9019 52.77 70.6755 52.2261 70.2737 51.8252C69.872 51.4244 69.3276 51.1992 68.76 51.1992Z" fill="#252525"/>
<path d="M67.98 54.4344H54.9168C54.7206 54.4344 54.5616 54.5934 54.5616 54.7896V55.452C54.5616 55.6482 54.7206 55.8072 54.9168 55.8072H67.98C68.1762 55.8072 68.3352 55.6482 68.3352 55.452V54.7896C68.3352 54.5934 68.1762 54.4344 67.98 54.4344Z" fill="#FAFAFA"/>
<path d="M99.636 68.2008V55.644C99.636 54.6817 98.8559 53.9016 97.8936 53.9016H76.0896C75.1273 53.9016 74.3472 54.6817 74.3472 55.644V68.2008C74.3472 69.1631 75.1273 69.9432 76.0896 69.9432H97.8936C98.8559 69.9432 99.636 69.1631 99.636 68.2008Z" fill="#6AB058"/>
<path d="M103.618 64.2216V51.6648C103.618 50.7025 102.838 49.9224 101.875 49.9224H80.0712C79.1089 49.9224 78.3288 50.7025 78.3288 51.6648V64.2216C78.3288 65.1839 79.1089 65.964 80.0712 65.964H101.875C102.838 65.964 103.618 65.1839 103.618 64.2216Z" fill="#6AB058"/>
<path opacity="0.5" d="M103.618 64.2216V51.6648C103.618 50.7025 102.838 49.9224 101.875 49.9224H80.0712C79.1089 49.9224 78.3288 50.7025 78.3288 51.6648V64.2216C78.3288 65.1839 79.1089 65.964 80.0712 65.964H101.875C102.838 65.964 103.618 65.1839 103.618 64.2216Z" fill="white"/>
<path d="M101.405 59.9184V52.188C101.405 51.7598 101.058 51.4128 100.63 51.4128H93.504C93.0759 51.4128 92.7288 51.7598 92.7288 52.188V59.9184C92.7288 60.3465 93.0759 60.6936 93.504 60.6936H100.63C101.058 60.6936 101.405 60.3465 101.405 59.9184Z" fill="#6AB058"/>
<path opacity="0.7" d="M101.405 59.9184V52.188C101.405 51.7598 101.058 51.4128 100.63 51.4128H93.504C93.0759 51.4128 92.7288 51.7598 92.7288 52.188V59.9184C92.7288 60.3465 93.0759 60.6936 93.504 60.6936H100.63C101.058 60.6936 101.405 60.3465 101.405 59.9184Z" fill="white"/>
<path d="M91.3704 63.6576V57.7344C91.3704 57.4057 91.1039 57.1392 90.7752 57.1392H85.3152C84.9865 57.1392 84.72 57.4057 84.72 57.7344V63.6576C84.72 63.9863 84.9865 64.2528 85.3152 64.2528H90.7752C91.1039 64.2528 91.3704 63.9863 91.3704 63.6576Z" fill="#6AB058"/>
<path opacity="0.3" d="M91.3704 63.6576V57.7344C91.3704 57.4057 91.1039 57.1392 90.7752 57.1392H85.3152C84.9865 57.1392 84.72 57.4057 84.72 57.7344V63.6576C84.72 63.9863 84.9865 64.2528 85.3152 64.2528H90.7752C91.1039 64.2528 91.3704 63.9863 91.3704 63.6576Z" fill="white"/>
<path d="M88.044 26.1024V22.9032C88.044 21.925 87.251 21.132 86.2728 21.132L27.6816 21.132C26.7034 21.132 25.9104 21.925 25.9104 22.9032V26.1024C25.9104 27.0806 26.7034 27.8736 27.6816 27.8736L86.2728 27.8736C87.251 27.8736 88.044 27.0806 88.044 26.1024Z" fill="#6AB058"/>
<path opacity="0.5" d="M88.044 26.1024V22.9032C88.044 21.925 87.251 21.132 86.2728 21.132L27.6816 21.132C26.7034 21.132 25.9104 21.925 25.9104 22.9032V26.1024C25.9104 27.0806 26.7034 27.8736 27.6816 27.8736L86.2728 27.8736C87.251 27.8736 88.044 27.0806 88.044 26.1024Z" fill="white"/>
<path d="M76.9584 29.0016V26.6808H60.0984V29.0016H76.9584Z" fill="#6AB058"/>
<path opacity="0.5" d="M76.9584 29.0016V26.6808H60.0984V29.0016H76.9584Z" fill="white"/>
<path d="M94.0896 16.1424V12.9432C94.0896 11.965 93.2966 11.172 92.3184 11.172L33.7272 11.172C32.749 11.172 31.956 11.965 31.956 12.9432V16.1424C31.956 17.1206 32.749 17.9136 33.7272 17.9136L92.3184 17.9136C93.2966 17.9136 94.0896 17.1206 94.0896 16.1424Z" fill="#6AB058"/>
<path d="M31.2864 46.6224C31.0752 47.1024 30.8424 47.6208 30.6384 48.1272C30.4344 48.6336 30.2232 49.1544 30.0384 49.6728C29.6592 50.6834 29.3552 51.7206 29.1288 52.776L29.0592 53.16L29.0352 53.304C29.0352 53.3448 29.0352 53.3976 29.0208 53.4456C29.0117 53.6792 29.0165 53.9133 29.0352 54.1464C29.0808 54.6528 29.1624 55.1952 29.2752 55.7376C29.4768 56.8248 29.7336 57.9456 29.9952 59.0496L28.764 59.5296C28.1901 58.4833 27.7013 57.3926 27.3024 56.268C27.0922 55.6826 26.9222 55.0836 26.7936 54.4752C26.7215 54.1385 26.6766 53.7966 26.6592 53.4528C26.6592 53.3568 26.6592 53.2656 26.6592 53.1624C26.6592 53.0592 26.6592 52.944 26.676 52.8768L26.724 52.3968C26.7957 51.7786 26.9055 51.1654 27.0528 50.5608C27.1872 49.9608 27.36 49.3776 27.5328 48.8016C27.7056 48.2256 27.9216 47.6592 28.1496 47.1024C28.2624 46.824 28.3896 46.548 28.5 46.272C28.6104 45.996 28.74 45.732 28.8936 45.4368L31.2864 46.6224Z" fill="#E4897B"/>
<path d="M29.9304 58.7256L30.8664 59.64L28.824 60.6C28.824 60.6 28.3296 59.7336 28.6728 58.9512L29.9304 58.7256Z" fill="#E4897B"/>
<path d="M31.6224 61.0008L29.8968 61.7064L28.8264 60.5904L30.8664 59.64L31.6224 61.0008Z" fill="#E4897B"/>
<path opacity="0.4" d="M66.5784 60.0167C63.1826 59.6355 59.9761 58.2559 57.3642 56.0526C54.7524 53.8492 52.8524 50.9209 51.9045 47.6379C50.9567 44.3549 51.0035 40.8645 52.039 37.6081C53.0745 34.3517 55.0523 31.4754 57.7223 29.3428C60.3922 27.2102 63.6346 25.9172 67.0393 25.627C70.4441 25.3369 73.8585 26.0628 76.8508 27.7129C79.8431 29.363 82.279 31.8632 83.8505 34.8975C85.4221 37.9318 86.0587 41.3639 85.68 44.7599C85.4283 47.0163 84.7345 49.2009 83.6382 51.189C82.5419 53.1771 81.0645 54.9296 79.2906 56.3465C77.5167 57.7634 75.4809 58.8168 73.2997 59.4466C71.1185 60.0763 68.8345 60.2701 66.5784 60.0167Z" fill="#FAFAFA"/>
<path opacity="0.4" d="M79.1496 29.2296L52.8696 50.2272C52.7592 49.9872 52.6512 49.7472 52.5504 49.5072C51.8916 47.9401 51.4701 46.2834 51.3 44.592L73.9992 26.4552C75.8628 27.0768 77.6052 28.0154 79.1496 29.2296Z" fill="#FAFAFA"/>
<path opacity="0.4" d="M85.2144 38.4288L60.5064 58.1688C58.1591 56.9451 56.125 55.1976 54.5616 53.0616L81.54 31.5048C83.279 33.5008 84.5361 35.8698 85.2144 38.4288Z" fill="#FAFAFA"/>
<path d="M49.0536 36.24L48.8256 36.1631C49.2204 34.998 49.7167 33.8696 50.3088 32.7912L50.5176 32.9064C49.9333 33.9728 49.4435 35.0882 49.0536 36.24ZM51.9672 30.6384L51.7728 30.4968C53.7451 27.8298 56.3265 25.6731 59.3016 24.2064L59.4096 24.4224C56.4682 25.874 53.9165 28.0076 51.9672 30.6456V30.6384ZM78.2688 24.7512C77.4845 24.3305 76.6731 23.9625 75.84 23.6496L75.9264 23.424C76.7677 23.7442 77.587 24.1194 78.3792 24.5472L78.2688 24.7512Z" fill="#6AB058"/>
<path opacity="0.3" d="M49.0536 36.24L48.8256 36.1631C49.2204 34.998 49.7167 33.8696 50.3088 32.7912L50.5176 32.9064C49.9333 33.9728 49.4435 35.0882 49.0536 36.24ZM51.9672 30.6384L51.7728 30.4968C53.7451 27.8298 56.3265 25.6731 59.3016 24.2064L59.4096 24.4224C56.4682 25.874 53.9165 28.0076 51.9672 30.6456V30.6384ZM78.2688 24.7512C77.4845 24.3305 76.6731 23.9625 75.84 23.6496L75.9264 23.424C76.7677 23.7442 77.587 24.1194 78.3792 24.5472L78.2688 24.7512Z" fill="#252525"/>
<path d="M86.3688 34.0176C84.1464 29.4084 80.2357 25.8313 75.4472 24.0276C70.6587 22.2239 65.3598 22.3321 60.6489 24.3297C55.938 26.3273 52.1765 30.0611 50.1442 34.7571C48.1118 39.4531 47.9645 44.7511 49.7328 49.5528C48.1296 50.1144 46.5456 50.7168 44.9712 51.3384C42.7008 52.2392 40.4512 53.18 38.2224 54.1608C35.9952 55.1472 33.7776 56.1528 31.5816 57.204C30.48 57.72 29.3928 58.2648 28.296 58.7928C27.7254 59.0379 27.2084 59.3926 26.7744 59.8368C26.5395 60.0827 26.3326 60.354 26.1576 60.6456C25.944 60.9905 25.7823 61.3649 25.6776 61.7568C25.497 62.463 25.5751 63.2106 25.8977 63.8643C26.2204 64.518 26.7663 65.0346 27.4368 65.3208C27.8091 65.4769 28.2019 65.5788 28.6032 65.6232C28.9421 65.6616 29.2842 65.6616 29.6232 65.6232C30.2391 65.5484 30.8343 65.3535 31.3752 65.0496C32.4624 64.5 33.5568 63.9696 34.6368 63.4056C36.7968 62.304 38.9568 61.1544 41.0904 59.988C43.224 58.8216 45.36 57.6 47.4432 56.3472C48.8832 55.476 50.3376 54.5856 51.7632 53.6544C54.5007 57.976 58.7959 61.0787 63.7587 62.3197C68.7216 63.5607 73.9717 62.8448 78.4211 60.3204C82.8705 57.7959 86.1781 53.6565 87.6586 48.7597C89.1391 43.8629 88.679 38.5843 86.3736 34.0176H86.3688ZM75.4584 56.9448C72.6692 58.3215 69.5345 58.8402 66.4506 58.4355C63.3667 58.0307 60.472 56.7206 58.1326 54.6707C55.7932 52.6209 54.1142 49.9234 53.3078 46.9194C52.5014 43.9154 52.6039 40.7397 53.6023 37.7939C54.6006 34.8481 56.4501 32.2644 58.9167 30.3697C61.3834 28.4749 64.3565 27.3542 67.4601 27.149C70.5638 26.9439 73.6585 27.6637 76.3531 29.2174C79.0476 30.771 81.221 33.0888 82.5984 35.8776C83.5131 37.7296 84.054 39.7438 84.1902 41.8049C84.3264 43.866 84.0553 45.9338 83.3923 47.8902C82.7292 49.8465 81.6873 51.6531 80.326 53.2067C78.9647 54.7603 77.3106 56.0305 75.4584 56.9448Z" fill="#6AB058"/>
<path opacity="0.3" d="M86.3688 34.0176C84.1464 29.4084 80.2357 25.8313 75.4472 24.0276C70.6587 22.2239 65.3598 22.3321 60.6489 24.3297C55.938 26.3273 52.1765 30.0611 50.1442 34.7571C48.1118 39.4531 47.9645 44.7511 49.7328 49.5528C48.1296 50.1144 46.5456 50.7168 44.9712 51.3384C42.7008 52.2392 40.4512 53.18 38.2224 54.1608C35.9952 55.1472 33.7776 56.1528 31.5816 57.204C30.48 57.72 29.3928 58.2648 28.296 58.7928C27.7254 59.0379 27.2084 59.3926 26.7744 59.8368C26.5395 60.0827 26.3326 60.354 26.1576 60.6456C25.944 60.9905 25.7823 61.3649 25.6776 61.7568C25.497 62.463 25.5751 63.2106 25.8977 63.8643C26.2204 64.518 26.7663 65.0346 27.4368 65.3208C27.8091 65.4769 28.2019 65.5788 28.6032 65.6232C28.9421 65.6616 29.2842 65.6616 29.6232 65.6232C30.2391 65.5484 30.8343 65.3535 31.3752 65.0496C32.4624 64.5 33.5568 63.9696 34.6368 63.4056C36.7968 62.304 38.9568 61.1544 41.0904 59.988C43.224 58.8216 45.36 57.6 47.4432 56.3472C48.8832 55.476 50.3376 54.5856 51.7632 53.6544C54.5007 57.976 58.7959 61.0787 63.7587 62.3197C68.7216 63.5607 73.9717 62.8448 78.4211 60.3204C82.8705 57.7959 86.1781 53.6565 87.6586 48.7597C89.1391 43.8629 88.679 38.5843 86.3736 34.0176H86.3688ZM75.4584 56.9448C72.6692 58.3215 69.5345 58.8402 66.4506 58.4355C63.3667 58.0307 60.472 56.7206 58.1326 54.6707C55.7932 52.6209 54.1142 49.9234 53.3078 46.9194C52.5014 43.9154 52.6039 40.7397 53.6023 37.7939C54.6006 34.8481 56.4501 32.2644 58.9167 30.3697C61.3834 28.4749 64.3565 27.3542 67.4601 27.149C70.5638 26.9439 73.6585 27.6637 76.3531 29.2174C79.0476 30.771 81.221 33.0888 82.5984 35.8776C83.5131 37.7296 84.054 39.7438 84.1902 41.8049C84.3264 43.866 84.0553 45.9338 83.3923 47.8902C82.7292 49.8465 81.6873 51.6531 80.326 53.2067C78.9647 54.7603 77.3106 56.0305 75.4584 56.9448Z" fill="#252525"/>
<path d="M37.92 38.052C37.92 38.1936 37.9944 38.3088 38.088 38.3088C38.1816 38.3088 38.256 38.1936 38.256 38.052C38.256 37.9104 38.1816 37.7952 38.088 37.7952C37.9944 37.7952 37.92 37.92 37.92 38.052Z" fill="#252525"/>
<path d="M37.9872 38.3088C38.1571 38.7434 38.3856 39.1528 38.6664 39.5256C38.5693 39.595 38.4582 39.6424 38.3409 39.6644C38.2235 39.6863 38.1028 39.6824 37.9872 39.6528V38.3088Z" fill="#DE5753"/>
<path d="M37.4232 37.2623C37.4098 37.2623 37.3966 37.2593 37.3846 37.2535C37.3725 37.2477 37.3619 37.2392 37.3536 37.2287C37.3411 37.2104 37.3361 37.188 37.3397 37.1661C37.3433 37.1442 37.3551 37.1245 37.3728 37.1111C37.4785 37.031 37.602 36.9775 37.7328 36.9554C37.8636 36.9333 37.9978 36.943 38.124 36.9839C38.1353 36.987 38.1459 36.9925 38.155 36.9999C38.1641 37.0073 38.1716 37.0166 38.1769 37.027C38.1822 37.0375 38.1852 37.049 38.1858 37.0607C38.1864 37.0724 38.1845 37.0842 38.1803 37.0951C38.1761 37.1061 38.1696 37.1161 38.1613 37.1244C38.153 37.1327 38.1431 37.1392 38.1321 37.1434C38.1212 37.1476 38.1094 37.1495 38.0977 37.1489C38.086 37.1483 38.0745 37.1452 38.064 37.1399C37.9638 37.1092 37.8576 37.103 37.7545 37.1217C37.6513 37.1405 37.5542 37.1838 37.4712 37.2479C37.457 37.2574 37.4403 37.2624 37.4232 37.2623Z" fill="#252525"/>
<path d="M33.072 39.12C33.312 40.4088 33.576 42.7728 32.6736 43.6344C32.6736 43.6344 33.0264 44.9424 35.424 44.9424C38.064 44.9424 36.6816 43.6344 36.6816 43.6344C35.2416 43.2888 35.2824 42.2232 35.532 41.22L33.072 39.12Z" fill="#E4897B"/>
<path d="M31.596 44.3136C31.8816 43.8696 31.4016 42.792 31.4016 42.792C31.4016 42.792 35.6448 41.724 37.38 43.3632C37.74 43.7016 37.3416 44.2008 37.3416 44.2008L31.596 44.3136Z" fill="#6AB058"/>
<path opacity="0.1" d="M31.596 44.3136C31.8816 43.8696 31.4016 42.792 31.4016 42.792C31.4016 42.792 35.6448 41.724 37.38 43.3632C37.74 43.7016 37.3416 44.2008 37.3416 44.2008L31.596 44.3136Z" fill="#252525"/>
<path d="M24.576 93.2807C24.3528 93.2807 23.9952 92.9087 23.8896 92.7695C23.8851 92.7628 23.8826 92.7549 23.8826 92.7467C23.8826 92.7386 23.8851 92.7307 23.8896 92.7239C23.8935 92.7172 23.8991 92.7117 23.9058 92.7079C23.9126 92.7041 23.9202 92.7022 23.928 92.7023C23.9544 92.7023 24.5424 92.7551 24.7032 92.9639C24.7207 92.986 24.7332 93.0116 24.7398 93.0389C24.7464 93.0663 24.747 93.0947 24.7416 93.1223C24.7395 93.1581 24.7264 93.1923 24.704 93.2202C24.6817 93.2481 24.6512 93.2685 24.6168 93.2783L24.576 93.2807ZM24.0192 92.8007C24.1944 93.0023 24.4752 93.2303 24.5952 93.2015C24.5952 93.2015 24.6432 93.1895 24.6576 93.1127C24.6608 93.0967 24.6602 93.0802 24.6561 93.0644C24.6519 93.0486 24.6442 93.0339 24.6336 93.0215C24.4558 92.8869 24.2419 92.8083 24.0192 92.7959V92.8007Z" fill="#6AB058"/>
<path d="M24.0456 92.796C24.0025 92.8003 23.9591 92.8003 23.916 92.796C23.9084 92.7954 23.9012 92.7926 23.8952 92.7879C23.8892 92.7832 23.8847 92.7768 23.8824 92.7696C23.879 92.7629 23.8773 92.7555 23.8773 92.748C23.8773 92.7405 23.879 92.7331 23.8824 92.7264C23.8992 92.712 24.252 92.3448 24.5184 92.3448C24.5503 92.3441 24.5819 92.3501 24.6113 92.3625C24.6407 92.3749 24.6671 92.3934 24.6888 92.4168C24.7127 92.4368 24.729 92.4643 24.7351 92.4949C24.7413 92.5254 24.7368 92.5571 24.7224 92.5848C24.6528 92.7192 24.2856 92.796 24.0456 92.796ZM24.0144 92.712C24.2544 92.712 24.6024 92.6376 24.66 92.532C24.66 92.532 24.6768 92.5008 24.6384 92.4624C24.6244 92.4472 24.6073 92.4353 24.5882 92.4274C24.5692 92.4195 24.5486 92.4159 24.528 92.4168C24.3313 92.4619 24.1524 92.5647 24.0144 92.712Z" fill="#6AB058"/>
<path d="M40.4136 98.7288C40.2317 98.7275 40.0502 98.7107 39.8712 98.6784C39.8623 98.6767 39.8543 98.6719 39.8486 98.6649C39.8429 98.6579 39.8398 98.649 39.84 98.64C39.8386 98.6317 39.8397 98.6232 39.8431 98.6155C39.8466 98.6078 39.8521 98.6013 39.8592 98.5968C39.8856 98.5824 40.5 98.2296 40.7952 98.3112C40.8225 98.3174 40.8484 98.3291 40.8711 98.3456C40.8938 98.3621 40.9129 98.383 40.9272 98.4072C40.946 98.4339 40.9561 98.4657 40.9561 98.4984C40.9561 98.531 40.946 98.5629 40.9272 98.5896C40.8576 98.6976 40.6392 98.7288 40.4136 98.7288ZM40.008 98.616C40.3344 98.664 40.7808 98.6616 40.8624 98.5464C40.8744 98.532 40.884 98.5056 40.8624 98.4552C40.844 98.4253 40.8148 98.4038 40.7808 98.3952C40.5936 98.3472 40.2216 98.5056 40.008 98.616Z" fill="#6AB058"/>
<path d="M39.8808 98.6808C39.8729 98.6831 39.8646 98.6831 39.8568 98.6808C39.8501 98.6765 39.8449 98.6703 39.8419 98.663C39.8389 98.6557 39.8383 98.6477 39.84 98.64C39.8563 98.3902 39.9521 98.1521 40.1136 97.9608C40.1462 97.9326 40.1846 97.9118 40.226 97.8998C40.2674 97.8878 40.3109 97.8849 40.3536 97.8912C40.4688 97.8912 40.5024 97.9608 40.5096 98.0064C40.5408 98.2056 40.1208 98.5872 39.9072 98.6832L39.8808 98.6808ZM40.3104 97.9608C40.2576 97.9604 40.2064 97.9792 40.1664 98.0136C40.0307 98.1652 39.9466 98.3559 39.9264 98.5584C40.1424 98.4264 40.4304 98.1288 40.4064 98.0088C40.4064 98.0088 40.4064 97.968 40.3248 97.9608H40.3104Z" fill="#6AB058"/>
<path d="M37.9416 98.6376H39.7056L39.8808 94.5552H38.1168L37.9416 98.6376Z" fill="#E4897B"/>
<path d="M22.2336 91.6296L23.7072 92.5944L26.9616 89.8464L25.4856 88.8792L22.2336 91.6296Z" fill="#E4897B"/>
<path d="M23.9496 92.5031L22.4184 91.2479C22.3913 91.2257 22.3574 91.2136 22.3224 91.2136C22.2874 91.2136 22.2534 91.2257 22.2264 91.2479L20.964 92.2391C20.9335 92.2634 20.9089 92.2943 20.8919 92.3294C20.875 92.3645 20.8662 92.403 20.8662 92.4419C20.8662 92.4809 20.875 92.5194 20.8919 92.5545C20.9089 92.5896 20.9335 92.6205 20.964 92.6447C21.5064 93.0743 21.792 93.2567 22.4664 93.8087C22.8816 94.1471 23.9064 95.1839 24.4848 95.6519C25.0632 96.1199 25.5936 95.6159 25.4016 95.3735C24.54 94.2815 24.2016 93.3479 24.1032 92.7695C24.0862 92.665 24.0316 92.5702 23.9496 92.5031Z" fill="#252525"/>
<path d="M39.6936 98.4336H37.7736C37.7386 98.4337 37.7046 98.4456 37.6772 98.4674C37.6498 98.4892 37.6305 98.5195 37.6224 98.5536L37.2744 100.121C37.2656 100.159 37.2656 100.198 37.2744 100.236C37.2832 100.274 37.3005 100.31 37.325 100.34C37.3495 100.37 37.3806 100.395 37.4159 100.411C37.4512 100.428 37.4898 100.436 37.5288 100.435C38.2224 100.423 39.2256 100.382 40.0992 100.382C41.1192 100.382 42.0024 100.438 43.1976 100.438C43.9176 100.438 44.124 99.7056 43.8192 99.6408C42.4416 99.3384 41.3136 99.3072 40.1232 98.5704C39.9954 98.4858 39.8467 98.4385 39.6936 98.4336Z" fill="#252525"/>
<path d="M29.1984 44.16C27.6696 44.88 26.7984 49.704 26.7984 49.704L30.5352 51.1944C31.0822 49.8588 31.5243 48.4826 31.8576 47.0784C32.3712 44.856 30.7632 43.416 29.1984 44.16Z" fill="#252525"/>
<path d="M31.1808 46.8792C30.2568 47.8152 29.8344 49.6488 29.6496 50.8416L30.5448 51.1992C31.0762 49.9015 31.5094 48.5658 31.8408 47.2032C31.7616 46.6944 31.5648 46.4904 31.1808 46.8792Z" fill="#203048"/>
<path d="M39.3936 44.1264C39.3936 44.1264 41.2704 46.248 39.4992 59.3664H30.0696C30.0048 57.9264 30.9144 50.8584 29.5176 44.0376C30.5597 43.8355 31.614 43.7024 32.6736 43.6392C34.0084 43.5599 35.3468 43.5599 36.6816 43.6392C37.5968 43.7313 38.5035 43.8941 39.3936 44.1264Z" fill="#252525"/>
<path d="M40.2552 49.2192L38.6664 46.4808C38.3597 47.7585 38.2345 49.073 38.2944 50.3856C38.3376 51.3264 39.1992 54.8112 39.9744 55.32C40.1801 53.2931 40.2739 51.2564 40.2552 49.2192Z" fill="#203048"/>
<path d="M40.476 46.0008C40.716 47.1672 40.956 48.3624 41.2128 49.5336C41.4696 50.7048 41.736 51.8808 42.0456 53.016C42.1248 53.2968 42.1992 53.5848 42.2856 53.8536L42.3504 54.06L42.3816 54.1632V54.1512C42.3648 54.1296 42.3456 54.1272 42.36 54.1512C42.4586 54.2589 42.5847 54.3377 42.7248 54.3792C42.9517 54.4636 43.1853 54.5287 43.4232 54.5736C44.5579 54.7534 45.7067 54.8282 46.8552 54.7968L47.0832 56.1024C46.7616 56.2056 46.4616 56.28 46.1448 56.3544C45.828 56.4288 45.516 56.4912 45.1968 56.5392C44.5364 56.6491 43.8668 56.6942 43.1976 56.6736C42.8256 56.6636 42.4557 56.6153 42.0936 56.5296C41.6332 56.4289 41.2005 56.2281 40.8264 55.9416C40.582 55.7443 40.3803 55.4993 40.2336 55.2216C40.1952 55.1496 40.1616 55.068 40.1304 54.9984L40.0872 54.8856L39.9984 54.6456C39.876 54.3408 39.7752 54.0408 39.6648 53.7408C39.2592 52.5408 38.9208 51.3288 38.6232 50.1192C38.3256 48.9096 38.0688 47.7024 37.8552 46.4616L40.476 46.0008Z" fill="#E4897B"/>
<path d="M37.0392 45.4127C36.5424 47.0231 38.556 51.8255 38.556 51.8255L42.5664 50.8175C42.5664 50.8175 42.4128 48.3215 41.4984 46.3415C40.1208 43.3559 37.6344 43.4807 37.0392 45.4127Z" fill="#252525"/>
<path d="M46.8216 54.7967L48.8184 54.7463L47.8584 56.8247C47.8584 56.8247 47.0448 56.9327 46.3776 55.8359L45.6744 54.9959L46.4832 54.8351C46.5945 54.8117 46.7078 54.7988 46.8216 54.7967Z" fill="#E4897B"/>
<path d="M50.0784 55.1327L48.936 56.8559L47.8584 56.8247L48.8184 54.7463L50.0784 55.1327Z" fill="#E4897B"/>
<path d="M39.8808 94.5552L39.7896 96.66H38.0256L38.1168 94.5552H39.8808Z" fill="#CE6F64"/>
<path d="M25.4856 88.8792L26.9616 89.8464L25.2816 91.2624L23.808 90.2976L25.4856 88.8792Z" fill="#CE6F64"/>
<path d="M33.1824 37.7471C33.288 39.4919 33.2616 40.5215 34.1424 41.4167C35.4672 42.7679 37.6248 41.9687 38.0424 40.2167C38.4192 38.6471 38.184 36.0551 36.4752 35.3591C36.0981 35.207 35.6886 35.1531 35.285 35.2025C34.8814 35.252 34.497 35.4031 34.1679 35.6418C33.8387 35.8805 33.5756 36.199 33.4032 36.5672C33.2309 36.9355 33.1549 37.3415 33.1824 37.7471Z" fill="#E4897B"/>
<path d="M31.128 37.44C31.5624 39.0312 32.5848 40.8648 33.9072 40.9824C35.5488 41.1264 36.2904 39.4296 36.5064 37.6776C37.4904 37.0032 36.9744 36.2616 37.9608 36.168C39.228 36.048 38.8224 33.7296 37.1544 33.3576C37.1544 33.3576 37.7136 34.4016 36.54 33.8736C35.4238 33.3431 34.1839 33.1282 32.9544 33.252C32.9544 33.252 34.452 34.0008 32.988 34.3344C31.524 34.668 31.0872 35.5704 31.7616 36.1152C31.7616 36.1176 30.8424 36.3936 31.128 37.44Z" fill="#252525"/>
<path d="M35.5056 38.0376C35.5378 38.4713 35.7125 38.8822 36.0024 39.2064C36.3864 39.6312 36.7872 39.3672 36.8544 38.8512C36.9168 38.388 36.7896 37.608 36.3192 37.3728C35.8488 37.1376 35.4744 37.5144 35.5056 38.0376Z" fill="#E4897B"/>
<path d="M36.1536 59.3664C36.1536 59.3664 37.872 71.8103 36.5184 76.7976C34.3728 84.6936 26.1696 91.3584 26.1696 91.3584L23.388 89.5344C23.388 89.5344 30.3744 83.9064 31.2288 77.2944C31.9968 71.3592 30.0696 64.1808 30.0696 59.364L36.1536 59.3664Z" fill="#6AB058"/>
<path opacity="0.1" d="M36.1536 59.3664C36.1536 59.3664 37.872 71.8103 36.5184 76.7976C34.3728 84.6936 26.1696 91.3584 26.1696 91.3584L23.388 89.5344C23.388 89.5344 30.3744 83.9064 31.2288 77.2944C31.9968 71.3592 30.0696 64.1808 30.0696 59.364L36.1536 59.3664Z" fill="#252525"/>
<path d="M36.864 66.48C36.4065 65.9559 35.9029 65.4739 35.3592 65.04C35.652 69.0792 35.892 75.0624 35.6256 79.3128C35.9838 78.498 36.2822 77.6581 36.5184 76.8C37.1784 74.364 37.1088 70.1568 36.864 66.48Z" fill="#6AB058"/>
<path opacity="0.3" d="M36.864 66.48C36.4065 65.9559 35.9029 65.4739 35.3592 65.04C35.652 69.0792 35.892 75.0624 35.6256 79.3128C35.9838 78.498 36.2822 77.6581 36.5184 76.8C37.1784 74.364 37.1088 70.1568 36.864 66.48Z" fill="#252525"/>
<path d="M27.2904 90.7368C27.3024 90.7368 26.2128 91.4568 26.2128 91.4568L23.1744 89.4647L24.1344 88.6703L27.2904 90.7368Z" fill="#6AB058"/>
<path opacity="0.3" d="M27.2904 90.7368C27.3024 90.7368 26.2128 91.4568 26.2128 91.4568L23.1744 89.4647L24.1344 88.6703L27.2904 90.7368Z" fill="#252525"/>
<path d="M39.4992 59.3664C39.4992 59.3664 42.1536 70.6224 42.3408 76.0008C42.552 82.0296 40.4472 96.252 40.4472 96.252H37.4592C37.4592 96.252 37.092 81.9192 36.96 76.428C36.8136 70.44 33.3 59.3664 33.3 59.3664H39.4992Z" fill="#6AB058"/>
<path opacity="0.1" d="M39.4992 59.3664C39.4992 59.3664 42.1536 70.6224 42.3408 76.0008C42.552 82.0296 40.4472 96.252 40.4472 96.252H37.4592C37.4592 96.252 37.092 81.9192 36.96 76.428C36.8136 70.44 33.3 59.3664 33.3 59.3664H39.4992Z" fill="#252525"/>
<path d="M41.0208 95.064C41.0352 95.064 40.8528 96.3024 40.8528 96.3024H37.2192L37.1208 95.196L41.0208 95.064Z" fill="#6AB058"/>
<path opacity="0.3" d="M41.0208 95.064C41.0352 95.064 40.8528 96.3024 40.8528 96.3024H37.2192L37.1208 95.196L41.0208 95.064Z" fill="#252525"/>
<path d="M85.44 48.5496C85.644 48.7416 85.8048 48.9048 85.9728 49.0872C86.1408 49.2696 86.2992 49.4472 86.4528 49.632C86.7648 49.9992 87.0576 50.3856 87.3408 50.7744C87.9065 51.5543 88.4096 52.3777 88.8456 53.2368L88.9344 53.412C88.9778 53.4968 89.0139 53.5851 89.0424 53.676C89.1004 53.8516 89.1359 54.0339 89.148 54.2184C89.1636 54.5438 89.1189 54.8693 89.016 55.1784C88.8407 55.6919 88.5803 56.1722 88.2456 56.5992C87.6426 57.3737 86.9313 58.0575 86.1336 58.6296L85.536 57.9432C85.8168 57.6144 86.1096 57.2616 86.3712 56.9088C86.6374 56.567 86.8781 56.206 87.0912 55.8288C87.2904 55.4997 87.4377 55.1419 87.528 54.768C87.5591 54.6343 87.5648 54.4959 87.5448 54.36C87.5363 54.3143 87.5217 54.2699 87.5016 54.228C87.4927 54.2096 87.4822 54.192 87.4704 54.1752L87.3936 54.0456C86.9308 53.2909 86.4285 52.5611 85.8888 51.8592C85.6224 51.5064 85.3368 51.168 85.0488 50.8344C84.9072 50.6664 84.7608 50.5032 84.6144 50.34C84.468 50.1768 84.3096 50.0136 84.1824 49.8864L85.44 48.5496Z" fill="#E4897B"/>
<path d="M85.7664 57.7416L83.9736 57.4488L84.912 59.0184C84.912 59.0184 86.0664 58.9776 86.3952 58.2984L85.7664 57.7416Z" fill="#E4897B"/>
<path d="M82.6488 58.1736L83.5032 59.448L84.912 59.0184L83.9736 57.4488L82.6488 58.1736Z" fill="#E4897B"/>
<path d="M85.68 98.7072C85.5582 98.7177 85.4365 98.6845 85.3368 98.6136C85.3068 98.5852 85.2846 98.5495 85.2724 98.51C85.2602 98.4704 85.2584 98.4284 85.2672 98.388C85.269 98.3623 85.2777 98.3375 85.2925 98.3163C85.3073 98.2952 85.3276 98.2785 85.3512 98.268C85.56 98.1744 86.1072 98.5248 86.1696 98.5656C86.1768 98.57 86.1823 98.5766 86.1853 98.5844C86.1883 98.5922 86.1887 98.6008 86.1864 98.6088C86.1855 98.617 86.182 98.6247 86.1764 98.6308C86.1708 98.6368 86.1634 98.6409 86.1552 98.6424C85.9998 98.6819 85.8404 98.7036 85.68 98.7072ZM85.44 98.3352C85.4225 98.3325 85.4047 98.3325 85.3872 98.3352C85.3767 98.3401 85.3677 98.3479 85.3614 98.3577C85.355 98.3674 85.3515 98.3788 85.3512 98.3904C85.3449 98.4172 85.3455 98.4452 85.3531 98.4717C85.3607 98.4981 85.3749 98.5222 85.3944 98.5416C85.4856 98.6232 85.7208 98.6352 86.0352 98.5728C85.8551 98.4538 85.6526 98.373 85.44 98.3352Z" fill="#6AB058"/>
<path d="M86.16 98.64H86.1384C85.968 98.5416 85.6392 98.16 85.68 97.9512C85.6877 97.9183 85.706 97.8888 85.732 97.8671C85.7579 97.8455 85.7902 97.8329 85.824 97.8312C85.8564 97.8265 85.8894 97.8293 85.9206 97.8393C85.9518 97.8492 85.9803 97.8662 86.004 97.8888C86.2008 98.0616 86.2032 98.58 86.2032 98.6088C86.2027 98.6161 86.2005 98.6232 86.1968 98.6294C86.193 98.6357 86.1878 98.641 86.1816 98.6448L86.16 98.64ZM85.8528 97.92H85.8336C85.7808 97.92 85.7688 97.9488 85.764 97.9704C85.74 98.0928 85.944 98.3856 86.1144 98.5224C86.1186 98.3211 86.0608 98.1233 85.9488 97.956C85.9344 97.9426 85.9173 97.9324 85.8987 97.9262C85.8801 97.92 85.8603 97.9179 85.8408 97.92H85.8528Z" fill="#6AB058"/>
<path d="M77.5008 98.7072C77.3476 98.7218 77.1941 98.6828 77.0664 98.5968C77.0376 98.5712 77.0154 98.5392 77.0016 98.5032C76.9879 98.4673 76.9829 98.4286 76.9872 98.3904C76.9888 98.367 76.9962 98.3445 77.0088 98.3248C77.0214 98.305 77.0387 98.2888 77.0592 98.2776C77.2824 98.1528 77.9976 98.5176 78.0792 98.5632C78.0867 98.568 78.0927 98.5749 78.0965 98.5829C78.1003 98.591 78.1018 98.5999 78.1008 98.6088C78.0994 98.6172 78.0955 98.625 78.0894 98.631C78.0834 98.637 78.0756 98.641 78.0672 98.6424C77.8809 98.682 77.6913 98.7037 77.5008 98.7072ZM77.1816 98.3352C77.1542 98.3334 77.1268 98.3392 77.1024 98.352C77.0938 98.3561 77.0865 98.3625 77.0814 98.3706C77.0763 98.3787 77.0736 98.388 77.0736 98.3976C77.07 98.4226 77.0724 98.4481 77.0808 98.4719C77.0891 98.4957 77.1032 98.5172 77.1216 98.5344C77.232 98.6328 77.5272 98.6496 77.9256 98.5824C77.6933 98.4586 77.4418 98.3751 77.1816 98.3352Z" fill="#6AB058"/>
<path d="M78.06 98.64H78.0408C77.8272 98.544 77.4024 98.16 77.436 97.9512C77.436 97.9032 77.4792 97.8432 77.5968 97.8312C77.6398 97.8266 77.6832 97.8308 77.7245 97.8436C77.7658 97.8564 77.804 97.8775 77.8368 97.9056C78.0624 98.0928 78.1056 98.5776 78.1056 98.5992C78.1066 98.6065 78.1055 98.614 78.1025 98.6207C78.0996 98.6275 78.0948 98.6333 78.0888 98.6376C78.0797 98.6415 78.0696 98.6424 78.06 98.64ZM77.6304 97.92H77.604C77.5272 97.92 77.5224 97.9584 77.52 97.968C77.5008 98.0904 77.7888 98.3952 78 98.5272C77.9792 98.3221 77.8954 98.1284 77.76 97.9728C77.7236 97.9418 77.6782 97.9233 77.6304 97.92Z" fill="#6AB058"/>
<path d="M80.8968 43.032C80.8272 44.1168 80.64 46.32 81.4728 46.9296C81.4728 46.9296 81.3216 48.0408 79.356 48.3C77.196 48.5808 78.1824 47.3616 78.1824 47.3616C79.3272 46.9248 79.1808 46.0536 78.8688 45.2568L80.8968 43.032Z" fill="#E4897B"/>
<path d="M76.4256 41.1144C76.4137 41.1144 76.402 41.1119 76.3912 41.1069C76.3805 41.1019 76.3709 41.0947 76.3632 41.0856C76.2946 41.0042 76.2078 40.9401 76.1098 40.8984C76.0119 40.8567 75.9055 40.8386 75.7992 40.8456C75.788 40.8477 75.7765 40.8474 75.7653 40.8448C75.7542 40.8423 75.7437 40.8375 75.7345 40.8308C75.7253 40.824 75.7176 40.8155 75.7118 40.8057C75.706 40.7958 75.7023 40.7849 75.7008 40.7736C75.6981 40.751 75.7044 40.7283 75.7183 40.7103C75.7322 40.6924 75.7527 40.6806 75.7752 40.6776C75.9107 40.6662 76.047 40.6877 76.1724 40.7403C76.2978 40.793 76.4085 40.8752 76.4952 40.98C76.5056 40.9925 76.5123 41.0077 76.5144 41.0239C76.5165 41.04 76.5141 41.0564 76.5073 41.0712C76.5006 41.086 76.4897 41.0986 76.4761 41.1075C76.4625 41.1164 76.4467 41.1213 76.4304 41.1216L76.4256 41.1144Z" fill="#252525"/>
<path d="M76.0512 42.1776C75.9661 42.5218 75.8345 42.8529 75.66 43.1616C75.7401 43.2047 75.8288 43.2297 75.9196 43.2346C76.0105 43.2396 76.1013 43.2245 76.1856 43.1904L76.0512 42.1776Z" fill="#DE5753"/>
<path d="M76.1472 41.9136C76.1664 42.0576 76.1064 42.1824 76.0128 42.1968C75.9192 42.2112 75.8256 42.1008 75.8088 41.9568C75.792 41.8128 75.8496 41.688 75.9432 41.676C76.0368 41.664 76.1304 41.76 76.1472 41.9136Z" fill="#252525"/>
<path d="M75.9864 41.6784L75.6288 41.6232C75.6288 41.6232 75.84 41.8704 75.9864 41.6784Z" fill="#252525"/>
<path d="M80.0376 98.6016H78.2376L78.1176 94.4376H79.9176L80.0376 98.6016Z" fill="#E4897B"/>
<path d="M88.2096 98.6016H86.4096L85.8312 94.4376H87.6312L88.2096 98.6016Z" fill="#E4897B"/>
<path d="M86.2992 98.4H88.32C88.3545 98.3997 88.3879 98.412 88.4139 98.4345C88.44 98.457 88.4569 98.4883 88.4616 98.5224L88.7016 100.123C88.706 100.164 88.7018 100.204 88.6893 100.243C88.6768 100.282 88.6563 100.317 88.6291 100.347C88.6019 100.378 88.5687 100.402 88.5315 100.418C88.4944 100.434 88.4542 100.443 88.4136 100.442C87.7104 100.43 87.3696 100.39 86.4816 100.39C85.9344 100.39 85.1352 100.445 84.3816 100.445C83.628 100.445 83.5872 99.6984 83.9016 99.6312C85.3104 99.3288 85.5336 98.9112 86.0064 98.5104C86.0889 98.442 86.192 98.4031 86.2992 98.4Z" fill="#252525"/>
<path d="M78.1776 98.4H80.196C80.2307 98.3996 80.2644 98.4118 80.2909 98.4343C80.3174 98.4568 80.3348 98.4881 80.34 98.5224L80.58 100.123C80.5844 100.164 80.5802 100.204 80.5677 100.243C80.5553 100.282 80.5347 100.317 80.5075 100.347C80.4803 100.378 80.4471 100.402 80.4099 100.418C80.3728 100.434 80.3326 100.443 80.292 100.442C79.5888 100.43 79.248 100.39 78.36 100.39C77.8128 100.39 76.68 100.445 75.9264 100.445C75.1728 100.445 75.132 99.6984 75.4464 99.6312C76.8552 99.3288 77.4096 98.9112 77.8848 98.5104C77.9673 98.442 78.0704 98.4031 78.1776 98.4Z" fill="#252525"/>
<path d="M78.1176 94.4376L78.18 96.5856H79.98L79.9176 94.4376H78.1176Z" fill="#CE6F64"/>
<path d="M87.6312 94.4376H85.8312L86.1312 96.5856H87.9288L87.6312 94.4376Z" fill="#CE6F64"/>
<path d="M80.9208 40.7856C81.0432 42.5664 81.132 43.3176 80.3592 44.3424C79.1952 45.8808 76.9824 45.6432 76.3296 43.9344C75.7416 42.396 75.6408 39.744 77.2776 38.8128C77.6377 38.6064 78.0445 38.4955 78.4595 38.4905C78.8745 38.4855 79.2839 38.5866 79.6488 38.7842C80.0138 38.9818 80.3222 39.2694 80.5448 39.6197C80.7674 39.9699 80.8968 40.3713 80.9208 40.7856Z" fill="#E4897B"/>
<path d="M81.9576 42.4392C82.956 42.996 83.6976 41.6232 83.6976 41.6232C83.6976 41.6232 81.9072 41.8176 82.068 40.752C82.2792 39.3384 81.2664 37.62 78.7272 37.8408C78.5856 37.8528 78.4512 37.8696 78.3192 37.8912C78.0534 37.7652 77.7528 37.7327 77.4662 37.7989C77.1795 37.8651 76.9237 38.0262 76.74 38.256C76.02 38.316 75.048 39.1752 75.708 40.3104C75.7543 40.18 75.8261 40.06 75.9192 39.9576C75.9744 40.6224 76.5552 41.6784 77.28 41.748C77.436 42.6576 76.8312 43.7112 77.04 44.6616C77.3496 46.032 79.6608 46.3416 79.6608 46.3416C79.5811 46.1705 79.5514 45.9803 79.5752 45.793C79.599 45.6057 79.6753 45.429 79.7952 45.2832C81.3648 46.0032 82.3992 45.3 82.3992 45.3C81.3288 44.9016 81.6528 44.1912 81.6528 44.1912C82.0224 44.3553 82.4412 44.3697 82.8212 44.2314C83.2012 44.0931 83.5128 43.8129 83.6904 43.4496C83.3349 43.4665 82.982 43.3801 82.6745 43.2007C82.367 43.0214 82.118 42.7569 81.9576 42.4392Z" fill="#252525"/>
<path d="M77.9064 42.0216C77.9106 42.1925 77.881 42.3626 77.8192 42.522C77.7574 42.6814 77.6647 42.827 77.5464 42.9504C77.2296 43.2792 76.8408 43.0488 76.7352 42.6288C76.6416 42.2496 76.6944 41.6232 77.1072 41.4504C77.1981 41.4147 77.2964 41.4023 77.3933 41.4143C77.4902 41.4263 77.5825 41.4623 77.6619 41.519C77.7413 41.5758 77.8053 41.6515 77.848 41.7393C77.8907 41.8271 77.9108 41.9241 77.9064 42.0216Z" fill="#E4897B"/>
<path d="M79.4016 58.6128C79.4016 58.6128 79.8576 70.4592 80.9424 77.4144C81.816 83.0352 85.6968 96.168 85.6968 96.168H88.1496C88.1496 96.168 86.1264 83.484 85.6824 77.928C84.5592 63.8664 87.4752 60.8472 84.7224 57.9192L79.4016 58.6128Z" fill="#252525"/>
<path d="M81.4512 62.3592C81.4512 62.3592 80.3424 62.1672 79.6944 64.2792C79.9344 68.28 80.3448 73.5888 80.9424 77.4144C81.0744 78.2664 81.276 79.2936 81.5232 80.4192C81.0552 73.6608 81.4512 62.3592 81.4512 62.3592Z" fill="#161F33"/>
<path d="M77.4888 58.8624C77.4888 58.8624 75.468 71.9688 75.5856 77.4528C75.708 83.1576 77.7984 96.1728 77.7984 96.1728H80.2296C80.2296 96.1728 79.8456 83.496 80.0592 77.8944C80.2992 71.7864 82.7928 58.1736 82.7928 58.1736L77.4888 58.8624Z" fill="#252525"/>
<path d="M88.5048 96.2832H85.2432L84.9888 95.1888L88.4808 95.2128L88.5048 96.2832Z" fill="#6AB058"/>
<path opacity="0.2" d="M88.5048 96.2832H85.2432L84.9888 95.1888L88.4808 95.2128L88.5048 96.2832Z" fill="#252525"/>
<path d="M84.6 46.932C85.5384 47.0232 86.964 49.6896 86.964 49.6896L84.5952 51.5064C84.5952 51.5064 82.6344 49.7856 82.8672 48.8184C83.1096 47.8128 83.7 46.848 84.6 46.932Z" fill="#6AB058"/>
<path opacity="0.1" d="M84.6 46.932C85.5384 47.0232 86.964 49.6896 86.964 49.6896L84.5952 51.5064C84.5952 51.5064 82.6344 49.7856 82.8672 48.8184C83.1096 47.8128 83.7 46.848 84.6 46.932Z" fill="#252525"/>
<path d="M83.892 48.0792C83.6528 48.0148 83.4051 47.9872 83.1576 47.9976C83.0317 48.26 82.9343 48.5352 82.8672 48.8184C82.6272 49.7784 84.5952 51.5064 84.5952 51.5064L84.7704 51.372L83.892 48.0792Z" fill="#6AB058"/>
<path opacity="0.3" d="M83.892 48.0792C83.6528 48.0148 83.4051 47.9872 83.1576 47.9976C83.0317 48.26 82.9343 48.5352 82.8672 48.8184C82.6272 49.7784 84.5952 51.5064 84.5952 51.5064L84.7704 51.372L83.892 48.0792Z" fill="#252525"/>
<path d="M76.6848 50.64C76.0008 52.3704 75.2808 54.1296 74.7072 55.8648C74.6688 55.9752 74.6376 56.0808 74.604 56.1888L74.5224 56.4552C74.5001 56.5336 74.5001 56.6167 74.5224 56.6952C74.6579 56.9952 74.8728 57.2525 75.144 57.4392C75.8616 57.954 76.6434 58.3728 77.4696 58.6848L77.2536 59.568C76.2372 59.434 75.2544 59.1134 74.3544 58.6224C73.8006 58.3265 73.3495 57.8696 73.0608 57.312C72.895 56.9556 72.8375 56.5584 72.8952 56.1696C72.9007 56.122 72.9087 56.0747 72.9192 56.028L72.9432 55.9272L72.984 55.7448C73.0128 55.6224 73.0416 55.5048 73.0728 55.3848C73.3128 54.4248 73.62 53.5128 73.944 52.608C74.268 51.7032 74.6064 50.8104 74.988 49.92L76.6848 50.64Z" fill="#E4897B"/>
<path d="M75.228 48.2112C75.228 48.2112 74.4168 48.6216 77.4888 58.8624L84.732 57.9168C84.2232 54.984 83.9832 53.1672 84.6 46.932C83.5613 46.8576 82.5187 46.8576 81.48 46.932C80.3742 46.9963 79.2745 47.1407 78.1896 47.364C76.8 47.6736 75.228 48.2112 75.228 48.2112Z" fill="#6AB058"/>
<path opacity="0.1" d="M75.228 48.2112C75.228 48.2112 74.4168 48.6216 77.4888 58.8624L84.732 57.9168C84.2232 54.984 83.9832 53.1672 84.6 46.932C83.5613 46.8576 82.5187 46.8576 81.48 46.932C80.3742 46.9963 79.2745 47.1407 78.1896 47.364C76.8 47.6736 75.228 48.2112 75.228 48.2112Z" fill="#252525"/>
<path d="M84.7848 57.4776L85.2 58.08C85.2312 58.128 85.1784 58.1856 85.0968 58.1976L77.5008 59.1912C77.436 59.1912 77.376 59.1744 77.3664 59.1336L77.2176 58.4928C77.2056 58.4496 77.2584 58.404 77.3304 58.3944L84.6648 57.4344C84.6868 57.4309 84.7094 57.433 84.7304 57.4405C84.7513 57.4481 84.7701 57.4608 84.7848 57.4776Z" fill="#6AB058"/>
<path opacity="0.2" d="M84.7848 57.4776L85.2 58.08C85.2312 58.128 85.1784 58.1856 85.0968 58.1976L77.5008 59.1912C77.436 59.1912 77.376 59.1744 77.3664 59.1336L77.2176 58.4928C77.2056 58.4496 77.2584 58.404 77.3304 58.3944L84.6648 57.4344C84.6868 57.4309 84.7094 57.433 84.7304 57.4405C84.7513 57.4481 84.7701 57.4608 84.7848 57.4776Z" fill="#252525"/>
<path d="M83.9064 58.4256L84.1032 58.3992C84.1416 58.3992 84.168 58.3704 84.1632 58.3464L83.9616 57.516C83.954 57.5018 83.9417 57.4907 83.9268 57.4846C83.9119 57.4785 83.8954 57.4777 83.88 57.4824L83.6832 57.5064C83.6424 57.5064 83.616 57.5352 83.6232 57.5616L83.8248 58.3896C83.8296 58.416 83.868 58.4304 83.9064 58.4256Z" fill="#252525"/>
<path d="M79.1448 59.04L79.3416 59.0136C79.38 59.0136 79.4088 58.9848 79.4016 58.9608L79.2 58.1304C79.1922 58.1164 79.1799 58.1053 79.1652 58.0988C79.1505 58.0923 79.1341 58.0908 79.1184 58.0944L78.9216 58.1208C78.8832 58.1208 78.8544 58.1496 78.8616 58.1736L79.0632 59.004C79.068 59.04 79.1064 59.0544 79.1448 59.04Z" fill="#252525"/>
<path d="M75.5664 51.6864C75.7656 52.6128 76.0464 53.7864 76.4568 55.272L76.5456 51.5064L75.5664 51.6864Z" fill="#6AB058"/>
<path opacity="0.3" d="M75.5664 51.6864C75.7656 52.6128 76.0464 53.7864 76.4568 55.272L76.5456 51.5064L75.5664 51.6864Z" fill="#252525"/>
<path d="M75.228 48.2112C74.328 48.5736 73.548 51.6528 73.548 51.6528L76.644 53.16C76.644 53.16 78.1392 49.3944 77.4696 48.66C76.8 47.9256 76.2648 47.796 75.228 48.2112Z" fill="#6AB058"/>
<path opacity="0.1" d="M75.228 48.2112C74.328 48.5736 73.548 51.6528 73.548 51.6528L76.644 53.16C76.644 53.16 78.1392 49.3944 77.4696 48.66C76.8 47.9256 76.2648 47.796 75.228 48.2112Z" fill="#252525"/>
<path d="M80.6448 96.2832H77.3832L77.1288 95.1888L80.76 95.2128L80.6448 96.2832Z" fill="#6AB058"/>
<path opacity="0.2" d="M80.6448 96.2832H77.3832L77.1288 95.1888L80.76 95.2128L80.6448 96.2832Z" fill="#252525"/>
<path d="M77.52 58.3872L77.2584 58.2792C77.1941 58.253 77.124 58.2443 77.0553 58.254C76.9865 58.2637 76.9216 58.2914 76.867 58.3343C76.8124 58.3772 76.7701 58.4337 76.7444 58.4983C76.7188 58.5628 76.7106 58.6329 76.7208 58.7016L76.9104 59.952C76.9195 60.0146 76.9424 60.0743 76.9774 60.127C77.0125 60.1797 77.0587 60.2239 77.1129 60.2565C77.1671 60.2891 77.2279 60.3093 77.2908 60.3155C77.3537 60.3218 77.4173 60.314 77.4768 60.2928C77.572 60.2582 77.6611 60.2088 77.7408 60.1464C77.8276 60.0744 77.8963 59.983 77.9413 59.8796C77.9863 59.7763 78.0064 59.6638 78 59.5512L77.9736 59.0328C77.9691 58.8927 77.9237 58.757 77.8431 58.6423C77.7626 58.5276 77.6503 58.439 77.52 58.3872Z" fill="#E4897B"/>
</svg>
