<svg width="48" height="48" viewBox="0 0 48 48" fill="none" xmlns="http://www.w3.org/2000/svg">
<rect width="48" height="48" rx="24" fill="#FF9046" fill-opacity="0.1"/>
<path d="M23.9864 29.6146C23.2016 29.6146 22.5562 28.9969 22.5217 28.2129L21.1697 15.1677C21.0467 13.5291 22.3431 12.1319 23.9864 12.1319C25.6297 12.1319 26.9261 13.5291 26.8031 15.1677L25.4511 28.2129C25.4166 28.9969 24.7712 29.6146 23.9864 29.6146Z" fill="#FF9046"/>
<path d="M23.9861 35.8402C25.2763 35.8402 26.3222 34.7942 26.3222 33.504C26.3222 32.2138 25.2763 31.1678 23.9861 31.1678C22.6958 31.1678 21.6499 32.2138 21.6499 33.504C21.6499 34.7942 22.6958 35.8402 23.9861 35.8402Z" fill="#FF9046"/>
</svg>
