<svg width="14" height="16" viewBox="0 0 14 16" fill="none" xmlns="http://www.w3.org/2000/svg">
<path fill-rule="evenodd" clip-rule="evenodd" d="M0.866808 0.927421C1.58319 0.174892 2.70951 0 4.14168 0H9.86583C11.2978 0 12.4246 0.174794 13.1401 0.92778C13.8431 1.66753 14.0037 2.81864 13.9999 4.30915C13.9999 4.30895 13.9999 4.30934 13.9999 4.30915V12.6943C13.9999 13.2337 13.926 13.7114 13.7656 14.0997C13.6046 14.4897 13.3383 14.8272 12.9397 14.9963C12.537 15.1671 12.1057 15.121 11.7123 14.9543C11.3244 14.7899 10.9412 14.4974 10.572 14.1102L10.571 14.1091C10.3673 13.8943 10.1356 13.8174 9.93267 13.8283C9.72952 13.8391 9.50724 13.9406 9.32825 14.1751L8.56391 15.1791L8.56198 15.1816C8.16424 15.698 7.60441 16 6.99997 16C6.39552 16 5.8357 15.698 5.43796 15.1816L5.43602 15.1791L4.67169 14.1751C4.4927 13.9406 4.27042 13.8391 4.06727 13.8283C3.86436 13.8174 3.63264 13.8943 3.42897 14.1091L3.428 14.1101C3.06047 14.4958 2.67806 14.7873 2.29037 14.9512C1.89724 15.1174 1.46615 15.1632 1.06349 14.9927C0.66475 14.824 0.397535 14.4869 0.235599 14.0961C0.0744579 13.7072 0 13.2283 0 12.6869V4.30834C0 2.81749 0.163032 1.66671 0.866808 0.927421ZM1.69619 1.68995C1.32858 2.07611 1.13574 2.80046 1.13574 4.30834V12.6869C1.13574 13.1388 1.19947 13.4627 1.28748 13.6751C1.3747 13.8856 1.46761 13.9485 1.51276 13.9676C1.55399 13.9851 1.65054 14.0067 1.84161 13.9259C2.03812 13.8428 2.29645 13.6647 2.59902 13.3472L3.01351 13.7286L2.59805 13.3482C3.01524 12.9082 3.56719 12.6837 4.12902 12.7138C4.6906 12.7438 5.21413 13.0256 5.58029 13.5054L6.34349 14.5079C6.34378 14.5083 6.34407 14.5087 6.34435 14.5091C6.55969 14.788 6.80208 14.8839 6.99997 14.8839C7.19786 14.8839 7.44026 14.788 7.65561 14.509C7.65589 14.5087 7.65617 14.5083 7.65644 14.5079L8.41925 13.5059C8.78541 13.0261 9.30934 12.7438 9.87092 12.7138C10.4324 12.6837 10.9841 12.9079 11.4012 13.3475C11.7058 13.6669 11.9651 13.8459 12.162 13.9294C12.3535 14.0105 12.4494 13.9886 12.4896 13.9715C12.534 13.9527 12.6264 13.8903 12.7133 13.6799C12.8009 13.4677 12.8642 13.1446 12.8642 12.6943V4.30834L12.8642 4.30695C12.868 2.79901 12.6765 2.07519 12.31 1.68959C11.9561 1.31713 11.296 1.11615 9.86583 1.11615H4.14168C2.71178 1.11615 2.05119 1.31703 1.69619 1.68995Z" fill="#252525"/>
<path fill-rule="evenodd" clip-rule="evenodd" d="M3.29083 7.25582C3.29083 6.84486 3.62983 6.51172 4.048 6.51172H4.0548C4.47297 6.51172 4.81196 6.84486 4.81196 7.25582C4.81196 7.66677 4.47297 7.99992 4.0548 7.99992H4.048C3.62983 7.99992 3.29083 7.66677 3.29083 7.25582Z" fill="#252525"/>
<path fill-rule="evenodd" clip-rule="evenodd" d="M5.60184 7.25534C5.60184 6.94712 5.85608 6.69727 6.16971 6.69727H10.3341C10.6477 6.69727 10.902 6.94712 10.902 7.25534C10.902 7.56356 10.6477 7.81341 10.3341 7.81341H6.16971C5.85608 7.81341 5.60184 7.56356 5.60184 7.25534Z" fill="#252525"/>
<path fill-rule="evenodd" clip-rule="evenodd" d="M3.29083 4.27926C3.29083 3.8683 3.62983 3.53516 4.048 3.53516H4.0548C4.47297 3.53516 4.81196 3.8683 4.81196 4.27926C4.81196 4.69021 4.47297 5.02336 4.0548 5.02336H4.048C3.62983 5.02336 3.29083 4.69021 3.29083 4.27926Z" fill="#252525"/>
<path fill-rule="evenodd" clip-rule="evenodd" d="M5.60184 4.27878C5.60184 3.97056 5.85608 3.7207 6.16971 3.7207H10.3341C10.6477 3.7207 10.902 3.97056 10.902 4.27878C10.902 4.58699 10.6477 4.83685 10.3341 4.83685H6.16971C5.85608 4.83685 5.60184 4.58699 5.60184 4.27878Z" fill="#252525"/>
</svg>
