<svg width="16" height="16" viewBox="0 0 16 16" fill="none" xmlns="http://www.w3.org/2000/svg">
<path d="M6.10646 7.24667C6.03979 7.24 5.95979 7.24 5.88646 7.24667C4.29979 7.19334 3.03979 5.89334 3.03979 4.29334C3.03979 2.66 4.35979 1.33334 5.9998 1.33334C7.63313 1.33334 8.95979 2.66 8.95979 4.29334C8.95313 5.89334 7.69313 7.19334 6.10646 7.24667Z" stroke="#455A64" stroke-width="1.2" stroke-linecap="round" stroke-linejoin="round"/>
<path d="M10.9402 2.66666C12.2335 2.66666 13.2735 3.71333 13.2735 5C13.2735 6.26 12.2735 7.28666 11.0268 7.33333C10.9735 7.32666 10.9135 7.32666 10.8535 7.33333" stroke="#455A64" stroke-width="1.2" stroke-linecap="round" stroke-linejoin="round"/>
<path d="M2.77311 9.70666C1.15978 10.7867 1.15978 12.5467 2.77311 13.62C4.60644 14.8467 7.61311 14.8467 9.44644 13.62C11.0598 12.54 11.0598 10.78 9.44644 9.70666C7.61978 8.48666 4.61311 8.48666 2.77311 9.70666Z" stroke="#455A64" stroke-width="1.2" stroke-linecap="round" stroke-linejoin="round"/>
<path d="M12.2268 13.3333C12.7068 13.2333 13.1601 13.04 13.5335 12.7533C14.5735 11.9733 14.5735 10.6867 13.5335 9.90667C13.1668 9.62667 12.7201 9.44 12.2468 9.33334" stroke="#455A64" stroke-width="1.2" stroke-linecap="round" stroke-linejoin="round"/>
</svg>
