<svg width="16" height="16" viewBox="0 0 16 16" fill="none" xmlns="http://www.w3.org/2000/svg">
<path fill-rule="evenodd" clip-rule="evenodd" d="M4.17016 5.13196C3.02125 5.13196 2.08159 6.09706 2.08159 7.27707V9.46901C2.45813 9.31491 2.868 9.22974 3.29588 9.22974C5.11676 9.22974 6.5918 10.7447 6.5918 12.6149C6.5918 13.1967 6.44833 13.7424 6.19767 14.2184H12.1359C13.2848 14.2184 14.2245 13.2533 14.2245 12.0732V11.7597H13.4265C12.4485 11.7597 11.4991 11.0251 11.4094 9.94005C11.3533 9.32559 11.5811 8.75157 11.9758 8.35314C12.3308 7.98127 12.8175 7.7688 13.3432 7.7688H14.2245V7.27707C14.2245 6.09706 13.2848 5.13196 12.1359 5.13196H4.17016ZM1.04077 7.27707C1.04077 5.50668 2.44641 4.06297 4.17016 4.06297H12.1359C13.8596 4.06297 15.2653 5.50668 15.2653 7.27707V8.3033C15.2653 8.59849 15.0323 8.83779 14.7449 8.83779H13.3432C13.0941 8.83779 12.875 8.937 12.7169 9.10375L12.7076 9.11335C12.523 9.29843 12.4198 9.56197 12.4458 9.84184L12.4464 9.84812L12.4463 9.84812C12.483 10.3006 12.9067 10.6907 13.4265 10.6907H14.7449C15.0323 10.6907 15.2653 10.93 15.2653 11.2252V12.0732C15.2653 13.8436 13.8596 15.2873 12.1359 15.2873H5.12771C4.91115 15.2873 4.71722 15.1496 4.64079 14.9415C4.56436 14.7334 4.62141 14.4984 4.78402 14.3515C5.25341 13.9275 5.55098 13.3086 5.55098 12.6149C5.55098 11.3351 4.54193 10.2987 3.29588 10.2987C2.76746 10.2987 2.27696 10.4889 1.88556 10.8093C1.72925 10.9373 1.51541 10.962 1.33533 10.8729C1.15525 10.7838 1.04077 10.5967 1.04077 10.3914V7.27707Z" fill="#455A64"/>
<path fill-rule="evenodd" clip-rule="evenodd" d="M8.5296 1.12145C8.52917 1.12161 8.52874 1.12178 8.52831 1.12194L3.02208 3.2587C2.45534 3.47905 2.08159 4.03479 2.08159 4.66162V7.27706C2.08159 7.57226 1.84859 7.81156 1.56118 7.81156C1.27377 7.81156 1.04077 7.57226 1.04077 7.27706V4.66162C1.04077 3.59241 1.6802 2.63722 2.65374 2.25889L8.1663 0.119685C9.36212 -0.335932 10.651 0.564209 10.651 1.88937V4.59746C10.651 4.89265 10.418 5.13196 10.1306 5.13196C9.84316 5.13196 9.61017 4.89265 9.61017 4.59746V1.88937C9.61017 1.31933 9.05422 0.922562 8.5296 1.12145Z" fill="#455A64"/>
<path fill-rule="evenodd" clip-rule="evenodd" d="M13.3424 8.83792C13.0933 8.83792 12.8742 8.93714 12.7161 9.10388L12.7068 9.11348C12.5221 9.29857 12.419 9.5621 12.445 9.84197L12.4456 9.84825L12.4455 9.84826C12.4822 10.3008 12.9059 10.6908 13.4257 10.6908H14.7737C14.8859 10.6834 14.9592 10.5933 14.9592 10.4984V9.03031C14.9592 8.93544 14.8859 8.84535 14.7737 8.83792H13.3424ZM11.975 8.35328C12.33 7.98141 12.8167 7.76894 13.3424 7.76894H14.7857C14.7919 7.76894 14.7981 7.76905 14.8043 7.76928C15.4655 7.79353 16 8.34311 16 9.03031V10.4984C16 11.1856 15.4655 11.7352 14.8043 11.7595C14.7981 11.7597 14.7919 11.7598 14.7857 11.7598H13.4257C12.4476 11.7598 11.4983 11.0253 11.4086 9.94018C11.3525 9.32573 11.5803 8.75171 11.975 8.35328Z" fill="#455A64"/>
<path fill-rule="evenodd" clip-rule="evenodd" d="M4.16333 7.62626C4.16333 7.33107 4.39632 7.09177 4.68374 7.09177H9.54088C9.8283 7.09177 10.0613 7.33107 10.0613 7.62626C10.0613 7.92145 9.8283 8.16075 9.54088 8.16075H4.68374C4.39632 8.16075 4.16333 7.92145 4.16333 7.62626Z" fill="#455A64"/>
<path fill-rule="evenodd" clip-rule="evenodd" d="M3.29592 10.2987C2.76751 10.2987 2.27701 10.4889 1.8856 10.8093L1.8847 10.8101L1.8847 10.8101C1.36764 11.2315 1.04082 11.8841 1.04082 12.6149C1.04082 13.8947 2.04986 14.931 3.29592 14.931C3.86259 14.931 4.38087 14.7128 4.78478 14.3509C5.25375 13.9269 5.55102 13.3083 5.55102 12.6149C5.55102 11.3351 4.54198 10.2987 3.29592 10.2987ZM1.2373 9.97306C1.80338 9.50979 2.52005 9.22975 3.29592 9.22975C5.1168 9.22975 6.59184 10.7447 6.59184 12.6149C6.59184 13.6315 6.1539 14.5377 5.47145 15.1542L5.47006 15.1555L5.47006 15.1555C4.88876 15.6768 4.13057 16 3.29592 16C1.47504 16 0 14.485 0 12.6149C0 11.55 0.47789 10.5922 1.2373 9.97306Z" fill="#455A64"/>
<path fill-rule="evenodd" clip-rule="evenodd" d="M3.46938 11.1896C3.75679 11.1896 3.98979 11.4289 3.98979 11.7241V12.793C3.98979 12.9808 3.89388 13.1548 3.73713 13.2514L2.86978 13.7859C2.62332 13.9377 2.30366 13.8557 2.15578 13.6025C2.00791 13.3494 2.08783 13.0211 2.33428 12.8692L2.94897 12.4904V11.7241C2.94897 11.4289 3.18196 11.1896 3.46938 11.1896Z" fill="#455A64"/>
</svg>
