<svg width="20" height="20" viewBox="0 0 20 20" fill="none" xmlns="http://www.w3.org/2000/svg">
<path d="M10 2.5C9.08337 2.5 8.33337 3.25 8.33337 4.16667C8.33337 5.08333 9.08337 5.83333 10 5.83333C10.9167 5.83333 11.6667 5.08333 11.6667 4.16667C11.6667 3.25 10.9167 2.5 10 2.5Z" stroke="#252525" stroke-width="1.2"/>
<path d="M10 14.1665C9.08337 14.1665 8.33337 14.9165 8.33337 15.8332C8.33337 16.7498 9.08337 17.4998 10 17.4998C10.9167 17.4998 11.6667 16.7498 11.6667 15.8332C11.6667 14.9165 10.9167 14.1665 10 14.1665Z" stroke="#252525" stroke-width="1.2"/>
<path d="M10 8.3335C9.08337 8.3335 8.33337 9.0835 8.33337 10.0002C8.33337 10.9168 9.08337 11.6668 10 11.6668C10.9167 11.6668 11.6667 10.9168 11.6667 10.0002C11.6667 9.0835 10.9167 8.3335 10 8.3335Z" stroke="#252525" stroke-width="1.2"/>
</svg>
