<svg width="16" height="16" viewBox="0 0 16 16" fill="none" xmlns="http://www.w3.org/2000/svg">
<path d="M4.83325 4.66668H11.1666V3.33334C11.1666 2.00001 10.6666 1.33334 9.16659 1.33334H6.83325C5.33325 1.33334 4.83325 2.00001 4.83325 3.33334V4.66668Z" stroke="#455A64" stroke-width="1.2" stroke-miterlimit="10" stroke-linecap="round" stroke-linejoin="round"/>
<path d="M10.6666 10V12.6667C10.6666 14 9.99992 14.6667 8.66659 14.6667H7.33325C5.99992 14.6667 5.33325 14 5.33325 12.6667V10H10.6666Z" stroke="#455A64" stroke-width="1.2" stroke-miterlimit="10" stroke-linecap="round" stroke-linejoin="round"/>
<path d="M14 6.66666V9.99999C14 11.3333 13.3333 12 12 12H10.6667V9.99999H5.33333V12H4C2.66667 12 2 11.3333 2 9.99999V6.66666C2 5.33332 2.66667 4.66666 4 4.66666H12C13.3333 4.66666 14 5.33332 14 6.66666Z" stroke="#455A64" stroke-width="1.2" stroke-miterlimit="10" stroke-linecap="round" stroke-linejoin="round"/>
<path d="M11.3334 10H10.5267H4.66675" stroke="#455A64" stroke-width="1.2" stroke-miterlimit="10" stroke-linecap="round" stroke-linejoin="round"/>
<path d="M4.66675 7.33334H6.66675" stroke="#455A64" stroke-width="1.2" stroke-miterlimit="10" stroke-linecap="round" stroke-linejoin="round"/>
</svg>
