<svg width="25" height="24" viewBox="0 0 25 24" fill="none" xmlns="http://www.w3.org/2000/svg">
<path d="M3.5 5C3.5 3.89543 4.39543 3 5.5 3H9.5C10.6046 3 11.5 3.89543 11.5 5V9C11.5 10.1046 10.6046 11 9.5 11H5.5C4.39543 11 3.5 10.1046 3.5 9V5ZM7.1 4.6C5.99543 4.6 5.1 5.49543 5.1 6.6V7.4C5.1 8.50457 5.99543 9.4 7.1 9.4H7.9C9.00457 9.4 9.9 8.50457 9.9 7.4V6.6C9.9 5.49543 9.00457 4.6 7.9 4.6H7.1Z" fill="#6AB058"/>
<path fill-rule="evenodd" clip-rule="evenodd" d="M6.5 7C6.5 6.44772 6.94772 6 7.5 6C8.05228 6 8.5 6.44772 8.5 7C8.5 7.55228 8.05228 8 7.5 8C6.94772 8 6.5 7.55228 6.5 7Z" fill="#6AB058"/>
<path d="M13.5 5C13.5 3.89543 14.3954 3 15.5 3H19.5C20.6046 3 21.5 3.89543 21.5 5V9C21.5 10.1046 20.6046 11 19.5 11H15.5C14.3954 11 13.5 10.1046 13.5 9V5ZM17.1 4.6C15.9954 4.6 15.1 5.49543 15.1 6.6V7.4C15.1 8.50457 15.9954 9.4 17.1 9.4H17.9C19.0046 9.4 19.9 8.50457 19.9 7.4V6.6C19.9 5.49543 19.0046 4.6 17.9 4.6H17.1Z" fill="#6AB058"/>
<path fill-rule="evenodd" clip-rule="evenodd" d="M16.5 7C16.5 6.44772 16.9477 6 17.5 6C18.0523 6 18.5 6.44772 18.5 7C18.5 7.55228 18.0523 8 17.5 8C16.9477 8 16.5 7.55228 16.5 7Z" fill="#6AB058"/>
<path d="M3.5 15C3.5 13.8954 4.39543 13 5.5 13H9.5C10.6046 13 11.5 13.8954 11.5 15V19C11.5 20.1046 10.6046 21 9.5 21H5.5C4.39543 21 3.5 20.1046 3.5 19V15ZM7.1 14.6C5.99543 14.6 5.1 15.4954 5.1 16.6V17.4C5.1 18.5046 5.99543 19.4 7.1 19.4H7.9C9.00457 19.4 9.9 18.5046 9.9 17.4V16.6C9.9 15.4954 9.00457 14.6 7.9 14.6H7.1Z" fill="#6AB058"/>
<path fill-rule="evenodd" clip-rule="evenodd" d="M6.5 17C6.5 16.4477 6.94772 16 7.5 16C8.05228 16 8.5 16.4477 8.5 17C8.5 17.5523 8.05228 18 7.5 18C6.94772 18 6.5 17.5523 6.5 17Z" fill="#6AB058"/>
<path d="M21.5 16.2C21.5 17.0837 20.7837 17.8 19.9 17.8C19.0163 17.8 18.3 18.5163 18.3 19.4C18.3 20.2837 17.5837 21 16.7 21H15.5C14.3954 21 13.5 20.1046 13.5 19V13.8C13.5 13.3582 13.8582 13 14.3 13C13.8582 13 13.5 13.3582 13.5 13.8V17C13.5 17.4418 13.8582 17.8 14.3 17.8C14.7418 17.8 15.1 18.1582 15.1 18.6C15.1 19.0418 15.4582 19.4 15.9 19.4C16.3418 19.4 16.7 19.0418 16.7 18.6V15.4C16.7 14.9582 16.3418 14.6 15.9 14.6C15.4582 14.6 15.1 14.2418 15.1 13.8C15.1 13.3582 14.7418 13 14.3 13H15.9C16.3418 13 16.7 13.3582 16.7 13.8C16.7 14.2418 17.0582 14.6 17.5 14.6C17.9418 14.6 18.3 14.9582 18.3 15.4C18.3 15.8418 18.6582 16.2 19.1 16.2C19.5418 16.2 19.9 15.8418 19.9 15.4V13.8C19.9 13.3582 20.2582 13 20.7 13C21.1418 13 21.5 13.3582 21.5 13.8V16.2ZM20.7 19.4C21.1418 19.4 21.5 19.7582 21.5 20.2C21.5 20.6418 21.1418 21 20.7 21C20.2582 21 19.9 20.6418 19.9 20.2C19.9 19.7582 20.2582 19.4 20.7 19.4Z" fill="#6AB058"/>
</svg>
