<svg width="16" height="16" viewBox="0 0 16 16" fill="none" xmlns="http://www.w3.org/2000/svg">
<path fill-rule="evenodd" clip-rule="evenodd" d="M0.666672 5.83301C0.666672 5.55687 0.890529 5.33301 1.16667 5.33301H9.5C9.77615 5.33301 10 5.55687 10 5.83301C10 6.10915 9.77615 6.33301 9.5 6.33301H1.16667C0.890529 6.33301 0.666672 6.10915 0.666672 5.83301Z" fill="#6AB058"/>
<path fill-rule="evenodd" clip-rule="evenodd" d="M3.33334 11.167C3.33334 10.8908 3.5572 10.667 3.83334 10.667H5.16668C5.44282 10.667 5.66668 10.8908 5.66668 11.167C5.66668 11.4431 5.44282 11.667 5.16668 11.667H3.83334C3.5572 11.667 3.33334 11.4431 3.33334 11.167Z" fill="#6AB058"/>
<path fill-rule="evenodd" clip-rule="evenodd" d="M6.33334 11.167C6.33334 10.8908 6.5572 10.667 6.83334 10.667H9.50001C9.77615 10.667 10 10.8908 10 11.167C10 11.4431 9.77615 11.667 9.50001 11.667H6.83334C6.5572 11.667 6.33334 11.4431 6.33334 11.167Z" fill="#6AB058"/>
<path fill-rule="evenodd" clip-rule="evenodd" d="M2.11072 3.44138C1.82734 3.72157 1.66667 4.25412 1.66667 5.42667V10.9067C1.66667 12.0792 1.82734 12.6118 2.11072 12.892C2.39606 13.1741 2.93934 13.3333 4.12667 13.3333H11.54C12.7273 13.3333 13.2706 13.1741 13.556 12.892C13.8393 12.6118 14 12.0792 14 10.9067V9.52C14 9.24386 14.2239 9.02 14.5 9.02C14.7761 9.02 15 9.24386 15 9.52V10.9067C15 12.0741 14.864 13.0049 14.2591 13.603C13.6561 14.1993 12.7193 14.3333 11.54 14.3333H4.12667C2.94734 14.3333 2.01061 14.1993 1.40763 13.603C0.802667 13.0049 0.666672 12.0741 0.666672 10.9067V5.42667C0.666672 4.25922 0.802667 3.32843 1.40763 2.73028C2.01061 2.13408 2.94734 2 4.12667 2H9.5C9.77615 2 10 2.22386 10 2.5C10 2.77614 9.77615 3 9.5 3H4.12667C2.93934 3 2.39606 3.15925 2.11072 3.44138Z" fill="#6AB058"/>
<path fill-rule="evenodd" clip-rule="evenodd" d="M13.1667 2C13.4428 2 13.6667 2.22386 13.6667 2.5V5.29289L14.1465 4.81311C14.3417 4.61785 14.6583 4.61785 14.8536 4.81311C15.0488 5.00838 15.0488 5.32496 14.8536 5.52022L13.5202 6.85355C13.3772 6.99655 13.1622 7.03933 12.9753 6.96194C12.7885 6.88455 12.6667 6.70223 12.6667 6.5V2.5C12.6667 2.22386 12.8905 2 13.1667 2Z" fill="#6AB058"/>
<path fill-rule="evenodd" clip-rule="evenodd" d="M11.4798 4.81344C11.6751 4.61818 11.9916 4.61818 12.1869 4.81344L13.5202 6.14677C13.7155 6.34203 13.7155 6.65862 13.5202 6.85388C13.325 7.04914 13.0084 7.04914 12.8131 6.85388L11.4798 5.52055C11.2845 5.32528 11.2845 5.0087 11.4798 4.81344Z" fill="#6AB058"/>
</svg>
