<svg width="16" height="16" viewBox="0 0 16 16" fill="none" xmlns="http://www.w3.org/2000/svg">
<g clip-path="url(#clip0_170_737)">
<path d="M6.00134 4.66667C6.00942 3.21665 6.07372 2.43137 6.58597 1.91912C7.17178 1.33333 8.11458 1.33333 10.0002 1.33333H10.6668C12.5524 1.33333 13.4953 1.33333 14.081 1.91912C14.6668 2.50491 14.6668 3.44771 14.6668 5.33333V10.6667C14.6668 12.5523 14.6668 13.4951 14.081 14.0809C13.4953 14.6667 12.5524 14.6667 10.6668 14.6667H10.0002C8.11458 14.6667 7.17178 14.6667 6.58597 14.0809C6.07372 13.5686 6.00942 12.7833 6.00134 11.3333" stroke="#455A64" stroke-width="1.5" stroke-linecap="round"/>
<path d="M10 8H1.33337M1.33337 8L3.66671 6M1.33337 8L3.66671 10" stroke="#455A64" stroke-width="1.5" stroke-linecap="round" stroke-linejoin="round"/>
</g>
<defs>
<clipPath id="clip0_170_737">
<rect width="16" height="16" fill="white"/>
</clipPath>
</defs>
</svg>
