<svg width="16" height="16" viewBox="0 0 16 16" fill="none" xmlns="http://www.w3.org/2000/svg">
<path d="M7.99996 9.66667V11M4.66663 6.68587C4.98091 6.66667 5.36835 6.66667 5.86663 6.66667H10.1333C10.6316 6.66667 11.019 6.66667 11.3333 6.68587M4.66663 6.68587C4.27441 6.7098 3.99615 6.76367 3.75865 6.88467C3.38232 7.0764 3.07636 7.38233 2.88461 7.75867C2.66663 8.18653 2.66663 8.74653 2.66663 9.86667V10.8C2.66663 11.9201 2.66663 12.4801 2.88461 12.908C3.07636 13.2843 3.38232 13.5903 3.75865 13.782C4.18647 14 4.74652 14 5.86663 14H10.1333C11.2534 14 11.8134 14 12.2413 13.782C12.6176 13.5903 12.9236 13.2843 13.1153 12.908C13.3333 12.4801 13.3333 11.9201 13.3333 10.8V9.86667C13.3333 8.74653 13.3333 8.18653 13.1153 7.75867C12.9236 7.38233 12.6176 7.0764 12.2413 6.88467C12.0038 6.76367 11.7255 6.7098 11.3333 6.68587M4.66663 6.68587V5.33333C4.66663 3.49239 6.15901 2 7.99996 2C9.84089 2 11.3333 3.49239 11.3333 5.33333V6.68587" stroke="#455A64" stroke-width="1.2" stroke-linecap="round" stroke-linejoin="round"/>
</svg>
