<svg width="22" height="19" viewBox="0 0 22 19" fill="none" xmlns="http://www.w3.org/2000/svg">
<path fill-rule="evenodd" clip-rule="evenodd" d="M2.63534 2.4871C1.95538 3.11848 1.5 4.14295 1.5 5.75V12.75C1.5 14.357 1.95538 15.3815 2.63534 16.0129C3.32535 16.6536 4.36497 17 5.75 17H15.75C17.135 17 18.1746 16.6536 18.8647 16.0129C19.5446 15.3815 20 14.357 20 12.75V5.75C20 4.14295 19.5446 3.11848 18.8647 2.4871C18.1746 1.84637 17.135 1.5 15.75 1.5H5.75C4.36497 1.5 3.32535 1.84637 2.63534 2.4871ZM1.61466 1.3879C2.67465 0.403634 4.13503 0 5.75 0H15.75C17.365 0 18.8254 0.403634 19.8853 1.3879C20.9554 2.38152 21.5 3.85705 21.5 5.75V12.75C21.5 14.643 20.9554 16.1185 19.8853 17.1121C18.8254 18.0964 17.365 18.5 15.75 18.5H5.75C4.13503 18.5 2.67465 18.0964 1.61466 17.1121C0.544615 16.1185 0 14.643 0 12.75V5.75C0 3.85705 0.544615 2.38152 1.61466 1.3879Z" fill="#6AB058"/>
<path fill-rule="evenodd" clip-rule="evenodd" d="M10.75 7C9.50736 7 8.5 8.00736 8.5 9.25C8.5 10.4926 9.50736 11.5 10.75 11.5C11.9926 11.5 13 10.4926 13 9.25C13 8.00736 11.9926 7 10.75 7ZM7 9.25C7 7.17893 8.67893 5.5 10.75 5.5C12.8211 5.5 14.5 7.17893 14.5 9.25C14.5 11.3211 12.8211 13 10.75 13C8.67893 13 7 11.3211 7 9.25Z" fill="#6AB058"/>
<path fill-rule="evenodd" clip-rule="evenodd" d="M4.25 6C4.66421 6 5 6.33579 5 6.75V11.75C5 12.1642 4.66421 12.5 4.25 12.5C3.83579 12.5 3.5 12.1642 3.5 11.75V6.75C3.5 6.33579 3.83579 6 4.25 6Z" fill="#6AB058"/>
<path fill-rule="evenodd" clip-rule="evenodd" d="M17.25 6C17.6642 6 18 6.33579 18 6.75V11.75C18 12.1642 17.6642 12.5 17.25 12.5C16.8358 12.5 16.5 12.1642 16.5 11.75V6.75C16.5 6.33579 16.8358 6 17.25 6Z" fill="#6AB058"/>
</svg>
