<svg width="16" height="16" viewBox="0 0 16 16" fill="none" xmlns="http://www.w3.org/2000/svg">
<path fill-rule="evenodd" clip-rule="evenodd" d="M0.666687 5.83301C0.666687 5.55687 0.890545 5.33301 1.16669 5.33301H9.50002C9.77616 5.33301 10 5.55687 10 5.83301C10 6.10915 9.77616 6.33301 9.50002 6.33301H1.16669C0.890545 6.33301 0.666687 6.10915 0.666687 5.83301Z" fill="#6AB058"/>
<path fill-rule="evenodd" clip-rule="evenodd" d="M3.33337 11.167C3.33337 10.8908 3.55723 10.667 3.83337 10.667H5.16671C5.44285 10.667 5.66671 10.8908 5.66671 11.167C5.66671 11.4431 5.44285 11.667 5.16671 11.667H3.83337C3.55723 11.667 3.33337 11.4431 3.33337 11.167Z" fill="#6AB058"/>
<path fill-rule="evenodd" clip-rule="evenodd" d="M6.33337 11.167C6.33337 10.8908 6.55723 10.667 6.83337 10.667H9.50004C9.77618 10.667 10 10.8908 10 11.167C10 11.4431 9.77618 11.667 9.50004 11.667H6.83337C6.55723 11.667 6.33337 11.4431 6.33337 11.167Z" fill="#6AB058"/>
<path fill-rule="evenodd" clip-rule="evenodd" d="M2.11073 3.44138C1.82736 3.72157 1.66669 4.25412 1.66669 5.42667V10.9067C1.66669 12.0792 1.82736 12.6118 2.11073 12.892C2.39608 13.1741 2.93936 13.3333 4.12669 13.3333H11.54C12.7274 13.3333 13.2706 13.1741 13.556 12.892C13.8393 12.6118 14 12.0792 14 10.9067V9.52C14 9.24386 14.2239 9.02 14.5 9.02C14.7762 9.02 15 9.24386 15 9.52V10.9067C15 12.0741 14.864 13.0049 14.2591 13.603C13.6561 14.1993 12.7194 14.3333 11.54 14.3333H4.12669C2.94735 14.3333 2.01063 14.1993 1.40764 13.603C0.802682 13.0049 0.666687 12.0741 0.666687 10.9067V5.42667C0.666687 4.25922 0.802682 3.32843 1.40764 2.73028C2.01063 2.13408 2.94735 2 4.12669 2H9.50002C9.77616 2 10 2.22386 10 2.5C10 2.77614 9.77616 3 9.50002 3H4.12669C2.93936 3 2.39608 3.15925 2.11073 3.44138Z" fill="#6AB058"/>
<path fill-rule="evenodd" clip-rule="evenodd" d="M12.9753 2.03807C13.1622 1.96068 13.3772 2.00346 13.5202 2.14646L14.8536 3.47979C15.0488 3.67506 15.0488 3.99164 14.8536 4.1869C14.6583 4.38216 14.3417 4.38216 14.1465 4.1869L13.6667 3.70712V6.50001C13.6667 6.77616 13.4428 7.00001 13.1667 7.00001C12.8905 7.00001 12.6667 6.77616 12.6667 6.50001V2.50001C12.6667 2.29778 12.7885 2.11547 12.9753 2.03807Z" fill="#6AB058"/>
<path fill-rule="evenodd" clip-rule="evenodd" d="M13.5203 2.14645C13.7155 2.34171 13.7155 2.65829 13.5203 2.85355L12.1869 4.18689C11.9917 4.38215 11.6751 4.38215 11.4798 4.18689C11.2846 3.99162 11.2846 3.67504 11.4798 3.47978L12.8132 2.14645C13.0084 1.95118 13.325 1.95118 13.5203 2.14645Z" fill="#6AB058"/>
</svg>
